<svg width="61" height="56" viewBox="0 0 61 56" fill="none" xmlns="http://www.w3.org/2000/svg">
<rect x="7.62341" y="15.441" width="41.3421" height="8.96576" rx="4.48288" transform="rotate(58.2421 7.62341 15.441)" fill="#4F0070"/>
<rect x="7.62341" y="15.441" width="41.3421" height="8.96576" rx="4.48288" transform="rotate(58.2421 7.62341 15.441)" fill="#4F0070"/>
<rect x="7.62341" y="15.441" width="41.3421" height="8.96576" rx="4.48288" transform="rotate(58.2421 7.62341 15.441)" fill="#4F0070"/>
<rect x="7.62341" y="15.441" width="41.3421" height="8.96576" rx="4.48288" transform="rotate(58.2421 7.62341 15.441)" fill="#4F0070"/>
<rect x="7.62341" y="15.441" width="41.3421" height="8.96576" rx="4.48288" transform="rotate(58.2421 7.62341 15.441)" fill="#4F0070"/>
<rect x="60.5377" y="5.23077" width="61.4013" height="8.96576" rx="4.48288" transform="rotate(125.691 60.5377 5.23077)" fill="#4F0070"/>
<rect x="60.5377" y="5.23077" width="61.4013" height="8.96576" rx="4.48288" transform="rotate(125.691 60.5377 5.23077)" fill="#4F0070"/>
<rect x="60.5377" y="5.23077" width="61.4013" height="8.96576" rx="4.48288" transform="rotate(125.691 60.5377 5.23077)" fill="#4F0070"/>
<rect x="60.5377" y="5.23077" width="61.4013" height="8.96576" rx="4.48288" transform="rotate(125.691 60.5377 5.23077)" fill="#4F0070"/>
<rect x="60.5377" y="5.23077" width="61.4013" height="8.96576" rx="4.48288" transform="rotate(125.691 60.5377 5.23077)" fill="#4F0070"/>
</svg>
