<svg width="177" height="222" viewBox="0 0 177 222" fill="none" xmlns="http://www.w3.org/2000/svg">
<rect width="177" height="222" rx="11" fill="#D9D9D9"/>
<rect width="177" height="220" rx="11" fill="#EFF6EF"/>
<rect width="177" height="106" rx="11" fill="#CBFFD0"/>
<path d="M0 11C0 4.92487 4.92487 0 11 0H23V23H0V11Z" fill="#FF5E5E"/>
<path d="M0 11C0 4.92487 4.92487 0 11 0H23V23H0V11Z" fill="#FF5E5E"/>
<path d="M0 11C0 4.92487 4.92487 0 11 0H23V23H0V11Z" fill="#FF5E5E"/>
<path d="M0 11C0 4.92487 4.92487 0 11 0H23V23H0V11Z" fill="#FF5E5E"/>
<path d="M0 11C0 4.92487 4.92487 0 11 0H23V23H0V11Z" fill="#55F678"/>
<path d="M14 11C14 4.92487 18.9249 0 25 0H166C172.075 0 177 4.92487 177 11V23H14V11Z" fill="#FF5E5E"/>
<path d="M14 11C14 4.92487 18.9249 0 25 0H166C172.075 0 177 4.92487 177 11V23H14V11Z" fill="#FF5E5E"/>
<path d="M14 11C14 4.92487 18.9249 0 25 0H166C172.075 0 177 4.92487 177 11V23H14V11Z" fill="#FF5E5E"/>
<path d="M14 11C14 4.92487 18.9249 0 25 0H166C172.075 0 177 4.92487 177 11V23H14V11Z" fill="#5EFF6E"/>
<path d="M14 11C14 4.92487 18.9249 0 25 0H166C172.075 0 177 4.92487 177 11V23H14V11Z" fill="#00BB07"/>
<path d="M47.2273 81V46.0909H68.2955V49.8409H51.4545V60.75H60.3182C62.8182 60.75 64.9261 61.1591 66.642 61.9773C68.3693 62.7955 69.6761 63.9489 70.5625 65.4375C71.4602 66.9261 71.9091 68.6818 71.9091 70.7045C71.9091 72.7273 71.4602 74.5114 70.5625 76.0568C69.6761 77.6023 68.3693 78.8125 66.642 79.6875C64.9261 80.5625 62.8182 81 60.3182 81H47.2273ZM51.4545 77.3182H60.3182C61.9091 77.3182 63.2557 77 64.358 76.3636C65.4716 75.7159 66.3125 74.8864 66.8807 73.875C67.4602 72.8523 67.75 71.7727 67.75 70.6364C67.75 68.9659 67.108 67.5284 65.8239 66.3239C64.5398 65.108 62.7045 64.5 60.3182 64.5H51.4545V77.3182Z" fill="#00BB07"/>
<circle cx="89" cy="53" r="8" fill="#00BB07"/>
<circle cx="101" cy="65" r="4" fill="#00BB07"/>
<circle cx="107.5" cy="58.5" r="2.5" fill="#00BB07"/>
<rect x="32" y="115" width="113" height="18" rx="9" fill="#D9D9D9"/>
<rect x="13" y="195" width="35" height="4" rx="2" fill="#D9D9D9"/>
<rect x="71" y="195" width="35" height="4" rx="2" fill="#D9D9D9"/>
<rect x="129" y="195" width="35" height="4" rx="2" fill="#D9D9D9"/>
<rect x="13" y="201" width="35" height="4" rx="2" fill="#D9D9D9"/>
<rect x="71" y="201" width="35" height="4" rx="2" fill="#D9D9D9"/>
<rect x="129" y="201" width="35" height="4" rx="2" fill="#D9D9D9"/>
<rect x="13" y="207" width="35" height="4" rx="2" fill="#D9D9D9"/>
<rect x="71" y="207" width="35" height="4" rx="2" fill="#D9D9D9"/>
<rect x="129" y="207" width="35" height="4" rx="2" fill="#D9D9D9"/>
<rect x="13" y="141" width="35" height="48" rx="9" fill="#45924C"/>
<rect x="13" y="141" width="35" height="48" rx="9" fill="#45924C"/>
<rect x="13" y="141" width="35" height="48" rx="9" fill="#45924C"/>
<rect x="13" y="141" width="35" height="48" rx="9" fill="#35C4CD"/>
<rect x="13" y="141" width="17.5" height="48" rx="8.75" fill="#45924C"/>
<rect x="13" y="141" width="17.5" height="48" rx="8.75" fill="#45924C"/>
<rect x="13" y="141" width="17.5" height="48" rx="8.75" fill="#45924C"/>
<rect x="13" y="141" width="17.5" height="48" rx="8.75" fill="#00297A"/>
<rect x="70" y="141" width="38" height="48" rx="9" fill="#45924C"/>
<rect x="70" y="141" width="38" height="48" rx="9" fill="#45924C"/>
<rect x="70" y="141" width="38" height="48" rx="9" fill="#45924C"/>
<rect x="70" y="141" width="38" height="48" rx="9" fill="#35C4CD"/>
<rect x="70" y="141" width="19" height="48" rx="9" fill="#45924C"/>
<rect x="70" y="141" width="19" height="48" rx="9" fill="#45924C"/>
<rect x="70" y="141" width="19" height="48" rx="9" fill="#45924C"/>
<rect x="70" y="141" width="19" height="48" rx="9" fill="#00297A"/>
<rect x="126" y="141" width="38" height="48" rx="9" fill="#45924C"/>
<rect x="126" y="141" width="38" height="48" rx="9" fill="#45924C"/>
<rect x="126" y="141" width="38" height="48" rx="9" fill="#45924C"/>
<rect x="126" y="141" width="38" height="48" rx="9" fill="#35C4CD"/>
<rect x="126" y="141" width="19" height="48" rx="9" fill="#45924C"/>
<rect x="126" y="141" width="19" height="48" rx="9" fill="#45924C"/>
<rect x="126" y="141" width="19" height="48" rx="9" fill="#45924C"/>
<rect x="126" y="141" width="19" height="48" rx="9" fill="#00297A"/>
</svg>
