<svg width="177" height="222" viewBox="0 0 177 222" fill="none" xmlns="http://www.w3.org/2000/svg">
<rect width="177" height="222" rx="11" fill="#D9D9D9"/>
<rect width="177" height="220" rx="11" fill="#EFF6EF"/>
<rect width="177" height="106" rx="11" fill="white"/>
<path d="M0 11C0 4.92487 4.92487 0 11 0H23V23H0V11Z" fill="#FF5E5E"/>
<path d="M0 11C0 4.92487 4.92487 0 11 0H23V23H0V11Z" fill="#FF5E5E"/>
<path d="M0 11C0 4.92487 4.92487 0 11 0H23V23H0V11Z" fill="#FF5E5E"/>
<path d="M0 11C0 4.92487 4.92487 0 11 0H23V23H0V11Z" fill="#FF5E5E"/>
<path d="M0 11C0 4.92487 4.92487 0 11 0H23V23H0V11Z" fill="#6F6F6F"/>
<circle cx="114.5" cy="66.5" r="25.5" fill="url(#paint0_linear_2097_2)"/>
<circle cx="52" cy="62" r="44" fill="url(#paint1_linear_2097_2)"/>
<circle cx="152" cy="66" r="12" fill="url(#paint2_linear_2097_2)"/>
<path d="M14 11C14 4.92487 18.9249 0 25 0H166C172.075 0 177 4.92487 177 11V23H14V11Z" fill="#FF5E5E"/>
<path d="M14 11C14 4.92487 18.9249 0 25 0H166C172.075 0 177 4.92487 177 11V23H14V11Z" fill="#FF5E5E"/>
<path d="M14 11C14 4.92487 18.9249 0 25 0H166C172.075 0 177 4.92487 177 11V23H14V11Z" fill="#FF5E5E"/>
<path d="M14 11C14 4.92487 18.9249 0 25 0H166C172.075 0 177 4.92487 177 11V23H14V11Z" fill="#5EFF6E"/>
<path d="M14 11C14 4.92487 18.9249 0 25 0H166C172.075 0 177 4.92487 177 11V23H14V11Z" fill="#2C392D"/>
<path d="M105.227 85V50.0909H126.295V53.8409H109.455V64.75H118.318C120.818 64.75 122.926 65.1591 124.642 65.9773C126.369 66.7955 127.676 67.9489 128.562 69.4375C129.46 70.9261 129.909 72.6818 129.909 74.7045C129.909 76.7273 129.46 78.5114 128.562 80.0568C127.676 81.6023 126.369 82.8125 124.642 83.6875C122.926 84.5625 120.818 85 118.318 85H105.227ZM109.455 81.3182H118.318C119.909 81.3182 121.256 81 122.358 80.3636C123.472 79.7159 124.313 78.8864 124.881 77.875C125.46 76.8523 125.75 75.7727 125.75 74.6364C125.75 72.9659 125.108 71.5284 123.824 70.3239C122.54 69.108 120.705 68.5 118.318 68.5H109.455V81.3182Z" fill="white"/>
<rect x="32" y="115" width="113" height="18" rx="9" fill="url(#paint3_linear_2097_2)"/>
<rect x="13" y="195" width="35" height="4" rx="2" fill="#D9D9D9"/>
<rect x="71" y="195" width="35" height="4" rx="2" fill="#D9D9D9"/>
<rect x="129" y="195" width="35" height="4" rx="2" fill="#D9D9D9"/>
<rect x="13" y="201" width="35" height="4" rx="2" fill="#D9D9D9"/>
<rect x="71" y="201" width="35" height="4" rx="2" fill="#D9D9D9"/>
<rect x="129" y="201" width="35" height="4" rx="2" fill="#D9D9D9"/>
<rect x="13" y="207" width="35" height="4" rx="2" fill="#D9D9D9"/>
<rect x="71" y="207" width="35" height="4" rx="2" fill="#D9D9D9"/>
<rect x="129" y="207" width="35" height="4" rx="2" fill="#D9D9D9"/>
<rect x="13" y="141" width="35" height="48" rx="9" fill="url(#paint4_linear_2097_2)"/>
<rect x="15" y="144" width="16" height="16" rx="8" fill="#45924C"/>
<rect x="15" y="144" width="16" height="16" rx="8" fill="#45924C"/>
<rect x="15" y="144" width="16" height="16" rx="8" fill="#45924C"/>
<rect x="15" y="144" width="16" height="16" rx="8" fill="white"/>
<rect x="70" y="141" width="38" height="48" rx="9" fill="url(#paint5_linear_2097_2)"/>
<rect x="126" y="141" width="38" height="48" rx="9" fill="url(#paint6_linear_2097_2)"/>
<rect x="73" y="144" width="16" height="16" rx="8" fill="#45924C"/>
<rect x="73" y="144" width="16" height="16" rx="8" fill="#45924C"/>
<rect x="73" y="144" width="16" height="16" rx="8" fill="#45924C"/>
<rect x="73" y="144" width="16" height="16" rx="8" fill="white"/>
<rect x="129" y="144" width="16" height="16" rx="8" fill="#45924C"/>
<rect x="129" y="144" width="16" height="16" rx="8" fill="#45924C"/>
<rect x="129" y="144" width="16" height="16" rx="8" fill="#45924C"/>
<rect x="129" y="144" width="16" height="16" rx="8" fill="white"/>
<defs>
<linearGradient id="paint0_linear_2097_2" x1="104.5" y1="67" x2="140" y2="67" gradientUnits="userSpaceOnUse">
<stop/>
<stop offset="0.74" stop-color="#0500FF"/>
</linearGradient>
<linearGradient id="paint1_linear_2097_2" x1="37" y1="70" x2="81" y2="69" gradientUnits="userSpaceOnUse">
<stop stop-color="#35C4CD"/>
<stop offset="0.797876" stop-color="#E23DFD"/>
</linearGradient>
<linearGradient id="paint2_linear_2097_2" x1="142.5" y1="66" x2="164" y2="66" gradientUnits="userSpaceOnUse">
<stop stop-color="#4200FF"/>
<stop offset="1" stop-color="#FF00F5"/>
</linearGradient>
<linearGradient id="paint3_linear_2097_2" x1="66.3431" y1="124.176" x2="145" y2="124.176" gradientUnits="userSpaceOnUse">
<stop/>
<stop offset="0.74" stop-color="#0500FF"/>
</linearGradient>
<linearGradient id="paint4_linear_2097_2" x1="24.5341" y1="169.364" x2="42.0383" y2="169.074" gradientUnits="userSpaceOnUse">
<stop stop-color="#35C4CD"/>
<stop offset="0.797876" stop-color="#E23DFD"/>
</linearGradient>
<linearGradient id="paint5_linear_2097_2" x1="82.5227" y1="169.364" x2="101.526" y2="169.022" gradientUnits="userSpaceOnUse">
<stop stop-color="#35C4CD"/>
<stop offset="0.797876" stop-color="#E23DFD"/>
</linearGradient>
<linearGradient id="paint6_linear_2097_2" x1="138.523" y1="169.364" x2="157.526" y2="169.022" gradientUnits="userSpaceOnUse">
<stop stop-color="#35C4CD"/>
<stop offset="0.797876" stop-color="#E23DFD"/>
</linearGradient>
</defs>
</svg>
