<svg width="1920" height="1653" viewBox="0 0 1920 1653" fill="none" xmlns="http://www.w3.org/2000/svg">
<path d="M1900.53 59.3673C1876.53 38.2505 34.5702 436.111 31.6906 572.89" stroke="white" stroke-width="11"/>
<path d="M1944.28 885.547C1918.9 932.965 30.6275 824.815 31.7083 571.868" stroke="white" stroke-width="11"/>
<path d="M38.188 1593.73C62.1844 1614.85 1904.15 1216.99 1907.03 1080.21" stroke="white" stroke-width="11"/>
<path d="M-5.56235 767.551C19.8164 720.133 1908.09 828.283 1907.01 1081.23" stroke="white" stroke-width="11"/>
<rect x="1804.53" y="117.32" width="39.6825" height="8.60584" rx="4.30292" transform="rotate(58.2421 1804.53 117.32)" fill="#4F0070"/>
<rect x="1804.53" y="117.32" width="39.6825" height="8.60584" rx="4.30292" transform="rotate(58.2421 1804.53 117.32)" fill="#4F0070"/>
<rect x="1804.53" y="117.32" width="39.6825" height="8.60584" rx="4.30292" transform="rotate(58.2421 1804.53 117.32)" fill="#4F0070"/>
<rect x="1804.53" y="117.32" width="39.6825" height="8.60584" rx="4.30292" transform="rotate(58.2421 1804.53 117.32)" fill="#4F0070"/>
<rect x="1804.53" y="117.32" width="39.6825" height="8.60584" rx="4.30292" transform="rotate(58.2421 1804.53 117.32)" fill="white"/>
<rect x="1855.32" y="107.52" width="58.9363" height="8.60584" rx="4.30292" transform="rotate(125.691 1855.32 107.52)" fill="#4F0070"/>
<rect x="1855.32" y="107.52" width="58.9363" height="8.60584" rx="4.30292" transform="rotate(125.691 1855.32 107.52)" fill="#4F0070"/>
<rect x="1855.32" y="107.52" width="58.9363" height="8.60584" rx="4.30292" transform="rotate(125.691 1855.32 107.52)" fill="#4F0070"/>
<rect x="1855.32" y="107.52" width="58.9363" height="8.60584" rx="4.30292" transform="rotate(125.691 1855.32 107.52)" fill="#4F0070"/>
<rect x="1855.32" y="107.52" width="58.9363" height="8.60584" rx="4.30292" transform="rotate(125.691 1855.32 107.52)" fill="white"/>
<rect x="78.708" y="559.813" width="39.6825" height="8.60584" rx="4.30292" transform="rotate(58.2421 78.708 559.813)" fill="#4F0070"/>
<rect x="78.708" y="559.813" width="39.6825" height="8.60584" rx="4.30292" transform="rotate(58.2421 78.708 559.813)" fill="#4F0070"/>
<rect x="78.708" y="559.813" width="39.6825" height="8.60584" rx="4.30292" transform="rotate(58.2421 78.708 559.813)" fill="#4F0070"/>
<rect x="78.708" y="559.813" width="39.6825" height="8.60584" rx="4.30292" transform="rotate(58.2421 78.708 559.813)" fill="#4F0070"/>
<rect x="78.708" y="559.813" width="39.6825" height="8.60584" rx="4.30292" transform="rotate(58.2421 78.708 559.813)" fill="white"/>
<rect x="129.498" y="550.013" width="58.9363" height="8.60584" rx="4.30292" transform="rotate(125.691 129.498 550.013)" fill="#4F0070"/>
<rect x="129.498" y="550.013" width="58.9363" height="8.60584" rx="4.30292" transform="rotate(125.691 129.498 550.013)" fill="#4F0070"/>
<rect x="129.498" y="550.013" width="58.9363" height="8.60584" rx="4.30292" transform="rotate(125.691 129.498 550.013)" fill="#4F0070"/>
<rect x="129.498" y="550.013" width="58.9363" height="8.60584" rx="4.30292" transform="rotate(125.691 129.498 550.013)" fill="#4F0070"/>
<rect x="129.498" y="550.013" width="58.9363" height="8.60584" rx="4.30292" transform="rotate(125.691 129.498 550.013)" fill="white"/>
<rect x="1813.17" y="812.256" width="39.6825" height="8.60584" rx="4.30292" transform="rotate(58.2421 1813.17 812.256)" fill="#4F0070"/>
<rect x="1813.17" y="812.256" width="39.6825" height="8.60584" rx="4.30292" transform="rotate(58.2421 1813.17 812.256)" fill="#4F0070"/>
<rect x="1813.17" y="812.256" width="39.6825" height="8.60584" rx="4.30292" transform="rotate(58.2421 1813.17 812.256)" fill="#4F0070"/>
<rect x="1813.17" y="812.256" width="39.6825" height="8.60584" rx="4.30292" transform="rotate(58.2421 1813.17 812.256)" fill="#4F0070"/>
<rect x="1813.17" y="812.256" width="39.6825" height="8.60584" rx="4.30292" transform="rotate(58.2421 1813.17 812.256)" fill="white"/>
<rect x="1863.96" y="802.455" width="58.9363" height="8.60584" rx="4.30292" transform="rotate(125.691 1863.96 802.455)" fill="#4F0070"/>
<rect x="1863.96" y="802.455" width="58.9363" height="8.60584" rx="4.30292" transform="rotate(125.691 1863.96 802.455)" fill="#4F0070"/>
<rect x="1863.96" y="802.455" width="58.9363" height="8.60584" rx="4.30292" transform="rotate(125.691 1863.96 802.455)" fill="#4F0070"/>
<rect x="1863.96" y="802.455" width="58.9363" height="8.60584" rx="4.30292" transform="rotate(125.691 1863.96 802.455)" fill="#4F0070"/>
<rect x="1863.96" y="802.455" width="58.9363" height="8.60584" rx="4.30292" transform="rotate(125.691 1863.96 802.455)" fill="white"/>
<rect x="116.142" y="1146.29" width="39.6825" height="8.60584" rx="4.30292" transform="rotate(58.2421 116.142 1146.29)" fill="#4F0070"/>
<rect x="116.142" y="1146.29" width="39.6825" height="8.60584" rx="4.30292" transform="rotate(58.2421 116.142 1146.29)" fill="#4F0070"/>
<rect x="116.142" y="1146.29" width="39.6825" height="8.60584" rx="4.30292" transform="rotate(58.2421 116.142 1146.29)" fill="#4F0070"/>
<rect x="116.142" y="1146.29" width="39.6825" height="8.60584" rx="4.30292" transform="rotate(58.2421 116.142 1146.29)" fill="#4F0070"/>
<rect x="116.142" y="1146.29" width="39.6825" height="8.60584" rx="4.30292" transform="rotate(58.2421 116.142 1146.29)" fill="white"/>
<rect x="166.932" y="1136.49" width="58.9363" height="8.60584" rx="4.30292" transform="rotate(125.691 166.932 1136.49)" fill="#4F0070"/>
<rect x="166.932" y="1136.49" width="58.9363" height="8.60584" rx="4.30292" transform="rotate(125.691 166.932 1136.49)" fill="#4F0070"/>
<rect x="166.932" y="1136.49" width="58.9363" height="8.60584" rx="4.30292" transform="rotate(125.691 166.932 1136.49)" fill="#4F0070"/>
<rect x="166.932" y="1136.49" width="58.9363" height="8.60584" rx="4.30292" transform="rotate(125.691 166.932 1136.49)" fill="#4F0070"/>
<rect x="166.932" y="1136.49" width="58.9363" height="8.60584" rx="4.30292" transform="rotate(125.691 166.932 1136.49)" fill="white"/>
<rect x="1812.21" y="1490.87" width="39.6825" height="8.60584" rx="4.30292" transform="rotate(58.2421 1812.21 1490.87)" fill="#4F0070"/>
<rect x="1812.21" y="1490.87" width="39.6825" height="8.60584" rx="4.30292" transform="rotate(58.2421 1812.21 1490.87)" fill="#4F0070"/>
<rect x="1812.21" y="1490.87" width="39.6825" height="8.60584" rx="4.30292" transform="rotate(58.2421 1812.21 1490.87)" fill="#4F0070"/>
<rect x="1812.21" y="1490.87" width="39.6825" height="8.60584" rx="4.30292" transform="rotate(58.2421 1812.21 1490.87)" fill="#4F0070"/>
<rect x="1812.21" y="1490.87" width="39.6825" height="8.60584" rx="4.30292" transform="rotate(58.2421 1812.21 1490.87)" fill="white"/>
<rect x="1863" y="1481.07" width="58.9363" height="8.60584" rx="4.30292" transform="rotate(125.691 1863 1481.07)" fill="#4F0070"/>
<rect x="1863" y="1481.07" width="58.9363" height="8.60584" rx="4.30292" transform="rotate(125.691 1863 1481.07)" fill="#4F0070"/>
<rect x="1863" y="1481.07" width="58.9363" height="8.60584" rx="4.30292" transform="rotate(125.691 1863 1481.07)" fill="#4F0070"/>
<rect x="1863" y="1481.07" width="58.9363" height="8.60584" rx="4.30292" transform="rotate(125.691 1863 1481.07)" fill="#4F0070"/>
<rect x="1863" y="1481.07" width="58.9363" height="8.60584" rx="4.30292" transform="rotate(125.691 1863 1481.07)" fill="white"/>
<rect x="103.664" y="1605.1" width="39.6825" height="8.60584" rx="4.30292" transform="rotate(58.2421 103.664 1605.1)" fill="#4F0070"/>
<rect x="103.664" y="1605.1" width="39.6825" height="8.60584" rx="4.30292" transform="rotate(58.2421 103.664 1605.1)" fill="#4F0070"/>
<rect x="103.664" y="1605.1" width="39.6825" height="8.60584" rx="4.30292" transform="rotate(58.2421 103.664 1605.1)" fill="#4F0070"/>
<rect x="103.664" y="1605.1" width="39.6825" height="8.60584" rx="4.30292" transform="rotate(58.2421 103.664 1605.1)" fill="#4F0070"/>
<rect x="103.664" y="1605.1" width="39.6825" height="8.60584" rx="4.30292" transform="rotate(58.2421 103.664 1605.1)" fill="white"/>
<rect x="154.454" y="1595.3" width="58.9363" height="8.60584" rx="4.30292" transform="rotate(125.691 154.454 1595.3)" fill="#4F0070"/>
<rect x="154.454" y="1595.3" width="58.9363" height="8.60584" rx="4.30292" transform="rotate(125.691 154.454 1595.3)" fill="#4F0070"/>
<rect x="154.454" y="1595.3" width="58.9363" height="8.60584" rx="4.30292" transform="rotate(125.691 154.454 1595.3)" fill="#4F0070"/>
<rect x="154.454" y="1595.3" width="58.9363" height="8.60584" rx="4.30292" transform="rotate(125.691 154.454 1595.3)" fill="#4F0070"/>
<rect x="154.454" y="1595.3" width="58.9363" height="8.60584" rx="4.30292" transform="rotate(125.691 154.454 1595.3)" fill="white"/>
</svg>