<svg width="1920" height="1522" viewBox="0 0 1920 1522" fill="none" xmlns="http://www.w3.org/2000/svg">
<path d="M1639.64 1001C1639.64 1001 1485.5 466.153 1349.64 524.5C1213.78 582.847 1152.64 30 1152.64 30" stroke="#4F0070" stroke-width="13"/>
<path d="M1446.63 1270C1446.63 1270 955.86 -43.8467 819.999 14.5003C684.139 72.8472 -99.5 187 -99.5 187" stroke="url(#paint0_linear_2005_9)" stroke-width="13"/>
<path d="M2002.64 637C2002.64 637 1848.5 102.153 1712.64 160.5C1576.78 218.847 1515.64 -334 1515.64 -334" stroke="#4F0070" stroke-width="13"/>
<path d="M1002.68 1026.82C1002.68 1026.82 1564.82 427.027 462.68 886.317C-639.456 1345.61 -77.32 745.817 -77.32 745.817" stroke="#3BA45F" stroke-width="13"/>
<defs>
<linearGradient id="paint0_linear_2005_9" x1="189.927" y1="-91.8855" x2="1475.45" y2="1242.23" gradientUnits="userSpaceOnUse">
<stop offset="0.31" stop-color="#3BA45F"/>
<stop offset="0.385" stop-color="#4F0070"/>
</linearGradient>
</defs>
</svg>
