<svg width="422" height="230" viewBox="0 0 422 230" fill="none" xmlns="http://www.w3.org/2000/svg">
<g filter="url(#filter0_f_2097_123)">
<rect x="4" y="4" width="177" height="222" rx="11" fill="#D9D9D9"/>
<rect x="4" y="4" width="177" height="220" rx="11" fill="#EFF6EF"/>
<rect x="4" y="4" width="177" height="106" rx="11" fill="white"/>
<path d="M4 15C4 8.92487 8.92487 4 15 4H27V27H4V15Z" fill="#FF5E5E"/>
<path d="M4 15C4 8.92487 8.92487 4 15 4H27V27H4V15Z" fill="#FF5E5E"/>
<path d="M4 15C4 8.92487 8.92487 4 15 4H27V27H4V15Z" fill="#FF5E5E"/>
<path d="M4 15C4 8.92487 8.92487 4 15 4H27V27H4V15Z" fill="#FF5E5E"/>
<path d="M4 15C4 8.92487 8.92487 4 15 4H27V27H4V15Z" fill="#6F6F6F"/>
<circle cx="118.5" cy="70.5" r="25.5" fill="url(#paint0_linear_2097_123)"/>
<circle cx="56" cy="66" r="44" fill="url(#paint1_linear_2097_123)"/>
<circle cx="156" cy="70" r="12" fill="url(#paint2_linear_2097_123)"/>
<path d="M18 15C18 8.92487 22.9249 4 29 4H170C176.075 4 181 8.92487 181 15V27H18V15Z" fill="#FF5E5E"/>
<path d="M18 15C18 8.92487 22.9249 4 29 4H170C176.075 4 181 8.92487 181 15V27H18V15Z" fill="#FF5E5E"/>
<path d="M18 15C18 8.92487 22.9249 4 29 4H170C176.075 4 181 8.92487 181 15V27H18V15Z" fill="#FF5E5E"/>
<path d="M18 15C18 8.92487 22.9249 4 29 4H170C176.075 4 181 8.92487 181 15V27H18V15Z" fill="#5EFF6E"/>
<path d="M18 15C18 8.92487 22.9249 4 29 4H170C176.075 4 181 8.92487 181 15V27H18V15Z" fill="#2C392D"/>
<path d="M110.659 89H106.227L119.045 54.0909H123.409L136.227 89H131.795L121.364 59.6136H121.091L110.659 89ZM112.295 75.3636H130.159V79.1136H112.295V75.3636Z" fill="white"/>
<rect x="36" y="119" width="113" height="18" rx="9" fill="url(#paint3_linear_2097_123)"/>
<rect x="17" y="199" width="35" height="4" rx="2" fill="#D9D9D9"/>
<rect x="75" y="199" width="35" height="4" rx="2" fill="#D9D9D9"/>
<rect x="133" y="199" width="35" height="4" rx="2" fill="#D9D9D9"/>
<rect x="17" y="205" width="35" height="4" rx="2" fill="#D9D9D9"/>
<rect x="75" y="205" width="35" height="4" rx="2" fill="#D9D9D9"/>
<rect x="133" y="205" width="35" height="4" rx="2" fill="#D9D9D9"/>
<rect x="17" y="211" width="35" height="4" rx="2" fill="#D9D9D9"/>
<rect x="75" y="211" width="35" height="4" rx="2" fill="#D9D9D9"/>
<rect x="133" y="211" width="35" height="4" rx="2" fill="#D9D9D9"/>
<rect x="17" y="145" width="35" height="48" rx="9" fill="url(#paint4_linear_2097_123)"/>
<rect x="19" y="148" width="16" height="16" rx="8" fill="#45924C"/>
<rect x="19" y="148" width="16" height="16" rx="8" fill="#45924C"/>
<rect x="19" y="148" width="16" height="16" rx="8" fill="#45924C"/>
<rect x="19" y="148" width="16" height="16" rx="8" fill="white"/>
<rect x="74" y="145" width="38" height="48" rx="9" fill="url(#paint5_linear_2097_123)"/>
<rect x="130" y="145" width="38" height="48" rx="9" fill="url(#paint6_linear_2097_123)"/>
<rect x="77" y="148" width="16" height="16" rx="8" fill="#45924C"/>
<rect x="77" y="148" width="16" height="16" rx="8" fill="#45924C"/>
<rect x="77" y="148" width="16" height="16" rx="8" fill="#45924C"/>
<rect x="77" y="148" width="16" height="16" rx="8" fill="white"/>
<rect x="133" y="148" width="16" height="16" rx="8" fill="#45924C"/>
<rect x="133" y="148" width="16" height="16" rx="8" fill="#45924C"/>
<rect x="133" y="148" width="16" height="16" rx="8" fill="#45924C"/>
<rect x="133" y="148" width="16" height="16" rx="8" fill="white"/>
<rect x="241" y="4" width="177" height="222" rx="11" fill="#D9D9D9"/>
<rect x="241" y="4" width="177" height="220" rx="11" fill="#EFF6EF"/>
<rect x="241" y="4" width="177" height="106" rx="11" fill="white"/>
<path d="M241 15C241 8.92487 245.925 4 252 4H264V27H241V15Z" fill="#FF5E5E"/>
<path d="M241 15C241 8.92487 245.925 4 252 4H264V27H241V15Z" fill="#FF5E5E"/>
<path d="M241 15C241 8.92487 245.925 4 252 4H264V27H241V15Z" fill="#FF5E5E"/>
<path d="M241 15C241 8.92487 245.925 4 252 4H264V27H241V15Z" fill="#FF5E5E"/>
<path d="M241 15C241 8.92487 245.925 4 252 4H264V27H241V15Z" fill="#6F6F6F"/>
<circle cx="355.5" cy="70.5" r="25.5" fill="url(#paint7_linear_2097_123)"/>
<circle cx="293" cy="66" r="44" fill="url(#paint8_linear_2097_123)"/>
<circle cx="393" cy="70" r="12" fill="url(#paint9_linear_2097_123)"/>
<path d="M255 15C255 8.92487 259.925 4 266 4H407C413.075 4 418 8.92487 418 15V27H255V15Z" fill="#FF5E5E"/>
<path d="M255 15C255 8.92487 259.925 4 266 4H407C413.075 4 418 8.92487 418 15V27H255V15Z" fill="#FF5E5E"/>
<path d="M255 15C255 8.92487 259.925 4 266 4H407C413.075 4 418 8.92487 418 15V27H255V15Z" fill="#FF5E5E"/>
<path d="M255 15C255 8.92487 259.925 4 266 4H407C413.075 4 418 8.92487 418 15V27H255V15Z" fill="#5EFF6E"/>
<path d="M255 15C255 8.92487 259.925 4 266 4H407C413.075 4 418 8.92487 418 15V27H255V15Z" fill="#2C392D"/>
<path d="M346.227 89V54.0909H358.432C360.864 54.0909 362.869 54.5114 364.449 55.3523C366.028 56.1818 367.205 57.3011 367.977 58.7102C368.75 60.108 369.136 61.6591 369.136 63.3636C369.136 64.8636 368.869 66.1023 368.335 67.0795C367.813 68.0568 367.119 68.8295 366.256 69.3977C365.403 69.9659 364.477 70.3864 363.477 70.6591V71C364.545 71.0682 365.619 71.4432 366.699 72.125C367.778 72.8068 368.682 73.7841 369.409 75.0568C370.136 76.3295 370.5 77.8864 370.5 79.7273C370.5 81.4773 370.102 83.0511 369.307 84.4489C368.511 85.8466 367.256 86.9545 365.54 87.7727C363.824 88.5909 361.591 89 358.841 89H346.227ZM350.455 85.25H358.841C361.602 85.25 363.563 84.7159 364.722 83.6477C365.892 82.5682 366.477 81.2614 366.477 79.7273C366.477 78.5455 366.176 77.4545 365.574 76.4545C364.972 75.4432 364.114 74.6364 363 74.0341C361.886 73.4205 360.568 73.1136 359.045 73.1136H350.455V85.25ZM350.455 69.4318H358.295C359.568 69.4318 360.716 69.1818 361.739 68.6818C362.773 68.1818 363.591 67.4773 364.193 66.5682C364.807 65.6591 365.114 64.5909 365.114 63.3636C365.114 61.8295 364.58 60.5284 363.511 59.4602C362.443 58.3807 360.75 57.8409 358.432 57.8409H350.455V69.4318Z" fill="white"/>
<rect x="273" y="119" width="113" height="18" rx="9" fill="url(#paint10_linear_2097_123)"/>
<rect x="254" y="199" width="35" height="4" rx="2" fill="#D9D9D9"/>
<rect x="312" y="199" width="35" height="4" rx="2" fill="#D9D9D9"/>
<rect x="370" y="199" width="35" height="4" rx="2" fill="#D9D9D9"/>
<rect x="254" y="205" width="35" height="4" rx="2" fill="#D9D9D9"/>
<rect x="312" y="205" width="35" height="4" rx="2" fill="#D9D9D9"/>
<rect x="370" y="205" width="35" height="4" rx="2" fill="#D9D9D9"/>
<rect x="254" y="211" width="35" height="4" rx="2" fill="#D9D9D9"/>
<rect x="312" y="211" width="35" height="4" rx="2" fill="#D9D9D9"/>
<rect x="370" y="211" width="35" height="4" rx="2" fill="#D9D9D9"/>
<rect x="254" y="145" width="35" height="48" rx="9" fill="url(#paint11_linear_2097_123)"/>
<rect x="256" y="148" width="16" height="16" rx="8" fill="#45924C"/>
<rect x="256" y="148" width="16" height="16" rx="8" fill="#45924C"/>
<rect x="256" y="148" width="16" height="16" rx="8" fill="#45924C"/>
<rect x="256" y="148" width="16" height="16" rx="8" fill="white"/>
<rect x="311" y="145" width="38" height="48" rx="9" fill="url(#paint12_linear_2097_123)"/>
<rect x="367" y="145" width="38" height="48" rx="9" fill="url(#paint13_linear_2097_123)"/>
<rect x="314" y="148" width="16" height="16" rx="8" fill="#45924C"/>
<rect x="314" y="148" width="16" height="16" rx="8" fill="#45924C"/>
<rect x="314" y="148" width="16" height="16" rx="8" fill="#45924C"/>
<rect x="314" y="148" width="16" height="16" rx="8" fill="white"/>
<rect x="370" y="148" width="16" height="16" rx="8" fill="#45924C"/>
<rect x="370" y="148" width="16" height="16" rx="8" fill="#45924C"/>
<rect x="370" y="148" width="16" height="16" rx="8" fill="#45924C"/>
<rect x="370" y="148" width="16" height="16" rx="8" fill="white"/>
</g>
<rect x="118" y="4" width="177" height="222" rx="11" fill="#D9D9D9"/>
<rect x="118" y="4" width="177" height="220" rx="11" fill="#EFF6EF"/>
<rect x="118" y="4" width="177" height="106" rx="11" fill="white"/>
<path d="M118 15C118 8.92487 122.925 4 129 4H141V27H118V15Z" fill="#FF5E5E"/>
<path d="M118 15C118 8.92487 122.925 4 129 4H141V27H118V15Z" fill="#FF5E5E"/>
<path d="M118 15C118 8.92487 122.925 4 129 4H141V27H118V15Z" fill="#FF5E5E"/>
<path d="M118 15C118 8.92487 122.925 4 129 4H141V27H118V15Z" fill="#FF5E5E"/>
<path d="M118 15C118 8.92487 122.925 4 129 4H141V27H118V15Z" fill="#6F6F6F"/>
<circle cx="232.5" cy="70.5" r="25.5" fill="url(#paint14_linear_2097_123)"/>
<circle cx="170" cy="66" r="44" fill="url(#paint15_linear_2097_123)"/>
<circle cx="270" cy="70" r="12" fill="url(#paint16_linear_2097_123)"/>
<path d="M132 15C132 8.92487 136.925 4 143 4H284C290.075 4 295 8.92487 295 15V27H132V15Z" fill="#FF5E5E"/>
<path d="M132 15C132 8.92487 136.925 4 143 4H284C290.075 4 295 8.92487 295 15V27H132V15Z" fill="#FF5E5E"/>
<path d="M132 15C132 8.92487 136.925 4 143 4H284C290.075 4 295 8.92487 295 15V27H132V15Z" fill="#FF5E5E"/>
<path d="M132 15C132 8.92487 136.925 4 143 4H284C290.075 4 295 8.92487 295 15V27H132V15Z" fill="#5EFF6E"/>
<path d="M132 15C132 8.92487 136.925 4 143 4H284C290.075 4 295 8.92487 295 15V27H132V15Z" fill="#2C392D"/>
<path d="M223.227 89V54.0909H244.295V57.8409H227.455V68.75H236.318C238.818 68.75 240.926 69.1591 242.642 69.9773C244.369 70.7955 245.676 71.9489 246.562 73.4375C247.46 74.9261 247.909 76.6818 247.909 78.7045C247.909 80.7273 247.46 82.5114 246.562 84.0568C245.676 85.6023 244.369 86.8125 242.642 87.6875C240.926 88.5625 238.818 89 236.318 89H223.227ZM227.455 85.3182H236.318C237.909 85.3182 239.256 85 240.358 84.3636C241.472 83.7159 242.313 82.8864 242.881 81.875C243.46 80.8523 243.75 79.7727 243.75 78.6364C243.75 76.9659 243.108 75.5284 241.824 74.3239C240.54 73.108 238.705 72.5 236.318 72.5H227.455V85.3182Z" fill="white"/>
<rect x="150" y="119" width="113" height="18" rx="9" fill="url(#paint17_linear_2097_123)"/>
<rect x="131" y="199" width="35" height="4" rx="2" fill="#D9D9D9"/>
<rect x="189" y="199" width="35" height="4" rx="2" fill="#D9D9D9"/>
<rect x="247" y="199" width="35" height="4" rx="2" fill="#D9D9D9"/>
<rect x="131" y="205" width="35" height="4" rx="2" fill="#D9D9D9"/>
<rect x="189" y="205" width="35" height="4" rx="2" fill="#D9D9D9"/>
<rect x="247" y="205" width="35" height="4" rx="2" fill="#D9D9D9"/>
<rect x="131" y="211" width="35" height="4" rx="2" fill="#D9D9D9"/>
<rect x="189" y="211" width="35" height="4" rx="2" fill="#D9D9D9"/>
<rect x="247" y="211" width="35" height="4" rx="2" fill="#D9D9D9"/>
<rect x="131" y="145" width="35" height="48" rx="9" fill="url(#paint18_linear_2097_123)"/>
<rect x="133" y="148" width="16" height="16" rx="8" fill="#45924C"/>
<rect x="133" y="148" width="16" height="16" rx="8" fill="#45924C"/>
<rect x="133" y="148" width="16" height="16" rx="8" fill="#45924C"/>
<rect x="133" y="148" width="16" height="16" rx="8" fill="white"/>
<rect x="188" y="145" width="38" height="48" rx="9" fill="url(#paint19_linear_2097_123)"/>
<rect x="244" y="145" width="38" height="48" rx="9" fill="url(#paint20_linear_2097_123)"/>
<rect x="191" y="148" width="16" height="16" rx="8" fill="#45924C"/>
<rect x="191" y="148" width="16" height="16" rx="8" fill="#45924C"/>
<rect x="191" y="148" width="16" height="16" rx="8" fill="#45924C"/>
<rect x="191" y="148" width="16" height="16" rx="8" fill="white"/>
<rect x="247" y="148" width="16" height="16" rx="8" fill="#45924C"/>
<rect x="247" y="148" width="16" height="16" rx="8" fill="#45924C"/>
<rect x="247" y="148" width="16" height="16" rx="8" fill="#45924C"/>
<rect x="247" y="148" width="16" height="16" rx="8" fill="white"/>
<defs>
<filter id="filter0_f_2097_123" x="0" y="0" width="422" height="230" filterUnits="userSpaceOnUse" color-interpolation-filters="sRGB">
<feFlood flood-opacity="0" result="BackgroundImageFix"/>
<feBlend mode="normal" in="SourceGraphic" in2="BackgroundImageFix" result="shape"/>
<feGaussianBlur stdDeviation="2" result="effect1_foregroundBlur_2097_123"/>
</filter>
<linearGradient id="paint0_linear_2097_123" x1="108.5" y1="71" x2="144" y2="71" gradientUnits="userSpaceOnUse">
<stop/>
<stop offset="0.74" stop-color="#0500FF"/>
</linearGradient>
<linearGradient id="paint1_linear_2097_123" x1="41" y1="74" x2="85" y2="73" gradientUnits="userSpaceOnUse">
<stop stop-color="#35C4CD"/>
<stop offset="0.797876" stop-color="#E23DFD"/>
</linearGradient>
<linearGradient id="paint2_linear_2097_123" x1="146.5" y1="70" x2="168" y2="70" gradientUnits="userSpaceOnUse">
<stop stop-color="#4200FF"/>
<stop offset="1" stop-color="#FF00F5"/>
</linearGradient>
<linearGradient id="paint3_linear_2097_123" x1="70.3431" y1="128.176" x2="149" y2="128.176" gradientUnits="userSpaceOnUse">
<stop/>
<stop offset="0.74" stop-color="#0500FF"/>
</linearGradient>
<linearGradient id="paint4_linear_2097_123" x1="28.5341" y1="173.364" x2="46.0383" y2="173.074" gradientUnits="userSpaceOnUse">
<stop stop-color="#35C4CD"/>
<stop offset="0.797876" stop-color="#E23DFD"/>
</linearGradient>
<linearGradient id="paint5_linear_2097_123" x1="86.5227" y1="173.364" x2="105.526" y2="173.022" gradientUnits="userSpaceOnUse">
<stop stop-color="#35C4CD"/>
<stop offset="0.797876" stop-color="#E23DFD"/>
</linearGradient>
<linearGradient id="paint6_linear_2097_123" x1="142.523" y1="173.364" x2="161.526" y2="173.022" gradientUnits="userSpaceOnUse">
<stop stop-color="#35C4CD"/>
<stop offset="0.797876" stop-color="#E23DFD"/>
</linearGradient>
<linearGradient id="paint7_linear_2097_123" x1="345.5" y1="71" x2="381" y2="71" gradientUnits="userSpaceOnUse">
<stop/>
<stop offset="0.74" stop-color="#0500FF"/>
</linearGradient>
<linearGradient id="paint8_linear_2097_123" x1="278" y1="74" x2="322" y2="73" gradientUnits="userSpaceOnUse">
<stop stop-color="#35C4CD"/>
<stop offset="0.797876" stop-color="#E23DFD"/>
</linearGradient>
<linearGradient id="paint9_linear_2097_123" x1="383.5" y1="70" x2="405" y2="70" gradientUnits="userSpaceOnUse">
<stop stop-color="#4200FF"/>
<stop offset="1" stop-color="#FF00F5"/>
</linearGradient>
<linearGradient id="paint10_linear_2097_123" x1="307.343" y1="128.176" x2="386" y2="128.176" gradientUnits="userSpaceOnUse">
<stop/>
<stop offset="0.74" stop-color="#0500FF"/>
</linearGradient>
<linearGradient id="paint11_linear_2097_123" x1="265.534" y1="173.364" x2="283.038" y2="173.074" gradientUnits="userSpaceOnUse">
<stop stop-color="#35C4CD"/>
<stop offset="0.797876" stop-color="#E23DFD"/>
</linearGradient>
<linearGradient id="paint12_linear_2097_123" x1="323.523" y1="173.364" x2="342.526" y2="173.022" gradientUnits="userSpaceOnUse">
<stop stop-color="#35C4CD"/>
<stop offset="0.797876" stop-color="#E23DFD"/>
</linearGradient>
<linearGradient id="paint13_linear_2097_123" x1="379.523" y1="173.364" x2="398.526" y2="173.022" gradientUnits="userSpaceOnUse">
<stop stop-color="#35C4CD"/>
<stop offset="0.797876" stop-color="#E23DFD"/>
</linearGradient>
<linearGradient id="paint14_linear_2097_123" x1="222.5" y1="71" x2="258" y2="71" gradientUnits="userSpaceOnUse">
<stop/>
<stop offset="0.74" stop-color="#0500FF"/>
</linearGradient>
<linearGradient id="paint15_linear_2097_123" x1="155" y1="74" x2="199" y2="73" gradientUnits="userSpaceOnUse">
<stop stop-color="#35C4CD"/>
<stop offset="0.797876" stop-color="#E23DFD"/>
</linearGradient>
<linearGradient id="paint16_linear_2097_123" x1="260.5" y1="70" x2="282" y2="70" gradientUnits="userSpaceOnUse">
<stop stop-color="#4200FF"/>
<stop offset="1" stop-color="#FF00F5"/>
</linearGradient>
<linearGradient id="paint17_linear_2097_123" x1="184.343" y1="128.176" x2="263" y2="128.176" gradientUnits="userSpaceOnUse">
<stop/>
<stop offset="0.74" stop-color="#0500FF"/>
</linearGradient>
<linearGradient id="paint18_linear_2097_123" x1="142.534" y1="173.364" x2="160.038" y2="173.074" gradientUnits="userSpaceOnUse">
<stop stop-color="#35C4CD"/>
<stop offset="0.797876" stop-color="#E23DFD"/>
</linearGradient>
<linearGradient id="paint19_linear_2097_123" x1="200.523" y1="173.364" x2="219.526" y2="173.022" gradientUnits="userSpaceOnUse">
<stop stop-color="#35C4CD"/>
<stop offset="0.797876" stop-color="#E23DFD"/>
</linearGradient>
<linearGradient id="paint20_linear_2097_123" x1="256.523" y1="173.364" x2="275.526" y2="173.022" gradientUnits="userSpaceOnUse">
<stop stop-color="#35C4CD"/>
<stop offset="0.797876" stop-color="#E23DFD"/>
</linearGradient>
</defs>
</svg>
