<svg width="340" height="268" viewBox="0 0 340 268" fill="none" xmlns="http://www.w3.org/2000/svg">
<rect x="1" width="213.65" height="267.968" rx="11" fill="#D9D9D9"/>
<rect x="1" width="213.65" height="265.554" rx="11" fill="#E5E5E5"/>
<rect x="1" width="213.65" height="127.949" rx="11" fill="white"/>
<path d="M1 11C1 4.92488 5.92487 0 12 0H28.7625V27.7625H1V11Z" fill="#FF5E5E"/>
<path d="M1 11C1 4.92488 5.92487 0 12 0H28.7625V27.7625H1V11Z" fill="#FF5E5E"/>
<path d="M1 11C1 4.92488 5.92487 0 12 0H28.7625V27.7625H1V11Z" fill="#FF5E5E"/>
<path d="M1 11C1 4.92488 5.92487 0 12 0H28.7625V27.7625H1V11Z" fill="#FF5E5E"/>
<path d="M1 11C1 4.92488 5.92487 0 12 0H28.7625V27.7625H1V11Z" fill="#6F6F6F"/>
<ellipse opacity="0.08" cx="113.257" cy="80.2698" rx="94.151" ry="35.6084" fill="#4C4C4C"/>
<path d="M17.8994 11C17.8994 4.92488 22.8243 0 28.8994 0H203.651C209.726 0 214.651 4.92487 214.651 11V27.7625H17.8994V11Z" fill="#FF5E5E"/>
<path d="M17.8994 11C17.8994 4.92488 22.8243 0 28.8994 0H203.651C209.726 0 214.651 4.92487 214.651 11V27.7625H17.8994V11Z" fill="#FF5E5E"/>
<path d="M17.8994 11C17.8994 4.92488 22.8243 0 28.8994 0H203.651C209.726 0 214.651 4.92487 214.651 11V27.7625H17.8994V11Z" fill="#FF5E5E"/>
<path d="M17.8994 11C17.8994 4.92488 22.8243 0 28.8994 0H203.651C209.726 0 214.651 4.92487 214.651 11V27.7625H17.8994V11Z" fill="#5EFF6E"/>
<path d="M17.8994 11C17.8994 4.92488 22.8243 0 28.8994 0H203.651C209.726 0 214.651 4.92487 214.651 11V27.7625H17.8994V11Z" fill="black"/>
<rect x="39.626" y="138.812" width="136.398" height="21.7272" rx="9" fill="url(#paint0_linear_2104_310)"/>
<rect x="16.6914" y="235.378" width="42.2473" height="4.82826" rx="2.41413" fill="#D9D9D9"/>
<rect x="86.7012" y="235.378" width="42.2473" height="4.82826" rx="2.41413" fill="#D9D9D9"/>
<rect x="156.711" y="235.378" width="42.2473" height="4.82826" rx="2.41413" fill="#D9D9D9"/>
<rect x="16.6914" y="242.62" width="42.2473" height="4.82826" rx="2.41413" fill="#D9D9D9"/>
<rect x="86.7012" y="242.62" width="42.2473" height="4.82826" rx="2.41413" fill="#D9D9D9"/>
<rect x="156.711" y="242.62" width="42.2473" height="4.82826" rx="2.41413" fill="#D9D9D9"/>
<rect x="16.6914" y="249.862" width="42.2473" height="4.82826" rx="2.41413" fill="#D9D9D9"/>
<rect x="86.7012" y="249.862" width="42.2473" height="4.82826" rx="2.41413" fill="#D9D9D9"/>
<rect x="156.711" y="249.862" width="42.2473" height="4.82826" rx="2.41413" fill="#D9D9D9"/>
<rect x="16.6934" y="170.196" width="42.2473" height="57.9391" rx="9" fill="black"/>
<rect x="19.1074" y="173.817" width="19.313" height="19.313" rx="9" fill="white"/>
<rect x="85.4941" y="170.196" width="45.8684" height="57.9391" rx="9" fill="black"/>
<rect x="153.091" y="170.196" width="45.8684" height="57.9391" rx="9" fill="black"/>
<rect x="89.1152" y="173.817" width="19.313" height="19.313" rx="9" fill="#45924C"/>
<rect x="89.1152" y="173.817" width="19.313" height="19.313" rx="9" fill="#45924C"/>
<rect x="89.1152" y="173.817" width="19.313" height="19.313" rx="9" fill="#45924C"/>
<rect x="89.1152" y="173.817" width="19.313" height="19.313" rx="9" fill="white"/>
<rect x="156.711" y="173.817" width="19.313" height="19.313" rx="9" fill="#45924C"/>
<rect x="156.711" y="173.817" width="19.313" height="19.313" rx="9" fill="#45924C"/>
<rect x="156.711" y="173.817" width="19.313" height="19.313" rx="9" fill="#45924C"/>
<rect x="156.711" y="173.817" width="19.313" height="19.313" rx="9" fill="white"/>
<path d="M104.663 34.615C104.468 34.6328 103.846 34.6949 103.287 34.7393C90.3906 35.9018 78.3105 42.8595 70.6595 53.5533C66.3991 59.4993 63.6742 66.2439 62.6446 73.3879C62.2807 75.8817 62.2363 76.6183 62.2363 79.9995C62.2363 83.3807 62.2807 84.1173 62.6446 86.611C65.1121 103.659 77.2454 117.983 93.7013 123.29C96.648 124.239 99.7546 124.887 103.287 125.277C104.663 125.428 110.61 125.428 111.986 125.277C118.083 124.603 123.249 123.094 128.344 120.494C129.125 120.095 129.276 119.988 129.169 119.9C129.098 119.846 125.77 115.382 121.776 109.987L114.515 100.18L105.417 86.7175C100.411 79.3162 96.293 73.2637 96.2575 73.2637C96.222 73.2548 96.1865 79.2363 96.1687 86.5401C96.1421 99.3283 96.1332 99.843 95.9735 100.145C95.7427 100.58 95.5652 100.757 95.1924 100.952C94.9084 101.094 94.6599 101.121 93.3196 101.121H91.7841L91.3758 100.864C91.1095 100.695 90.9142 100.473 90.7811 100.216L90.5947 99.8164L90.6125 82.0229L90.6391 64.2205L90.9142 63.8744C91.0563 63.6881 91.358 63.4484 91.571 63.3331C91.935 63.1556 92.077 63.1378 93.6125 63.1378C95.4232 63.1378 95.725 63.2088 96.1954 63.7236C96.3285 63.8656 101.255 71.2847 107.148 80.2214C113.042 89.158 121.101 101.361 125.06 107.351L132.249 118.24L132.613 118C135.835 115.906 139.243 112.924 141.942 109.818C147.684 103.224 151.385 95.1839 152.628 86.611C152.992 84.1173 153.036 83.3807 153.036 79.9995C153.036 76.6183 152.992 75.8817 152.628 73.3879C150.161 56.3399 138.027 42.0164 121.571 36.7094C118.669 35.7687 115.58 35.1209 112.119 34.7304C111.267 34.6416 105.4 34.544 104.663 34.615ZM123.249 62.0729C123.675 62.2859 124.021 62.6941 124.145 63.1201C124.216 63.3508 124.234 68.2851 124.216 79.4049L124.19 95.3614L121.376 91.0483L118.554 86.7353V75.1362C118.554 67.6372 118.589 63.4218 118.642 63.2177C118.784 62.7207 119.095 62.3303 119.521 62.0995C119.885 61.9131 120.018 61.8954 121.412 61.8954C122.725 61.8954 122.956 61.9131 123.249 62.0729Z" fill="black"/>
<g filter="url(#filter0_f_2104_310)">
<path d="M29.0483 51.9009C28.9274 51.9119 28.5428 51.9503 28.1966 51.9778C20.213 52.6975 12.7349 57.0046 7.99854 63.6246C5.36114 67.3054 3.6743 71.4807 3.03693 75.9032C2.81165 77.4469 2.78418 77.9029 2.78418 79.996C2.78418 82.0892 2.81165 82.5451 3.03693 84.0889C4.56442 94.6424 12.0755 103.509 22.2625 106.795C24.0867 107.382 26.0098 107.784 28.1966 108.025C29.0483 108.119 32.7296 108.119 33.5813 108.025C37.3561 107.608 40.5539 106.674 43.7078 105.064C44.1913 104.817 44.2847 104.751 44.2188 104.696C44.1749 104.663 42.1144 101.9 39.6418 98.5595L35.1473 92.4889L29.5153 84.1548C26.4164 79.573 23.8669 75.8263 23.8449 75.8263C23.8229 75.8208 23.801 79.5236 23.79 84.0449C23.7735 91.9615 23.768 92.2801 23.6691 92.4669C23.5262 92.7361 23.4163 92.846 23.1856 92.9668C23.0097 93.0547 22.8559 93.0712 22.0262 93.0712H21.0756L20.8229 92.9119C20.6581 92.8075 20.5372 92.6702 20.4548 92.5108L20.3394 92.2636L20.3504 81.2486L20.3668 70.2281L20.5372 70.0138C20.6251 69.8985 20.8119 69.7501 20.9438 69.6787C21.169 69.5688 21.257 69.5579 22.2075 69.5579C23.3284 69.5579 23.5152 69.6018 23.8064 69.9204C23.8889 70.0083 26.9384 74.6011 30.5868 80.1334C34.2352 85.6656 39.2242 93.2195 41.6748 96.9278L46.1254 103.669L46.3507 103.52C48.3452 102.224 50.4552 100.378 52.1255 98.4551C55.6805 94.3732 57.9718 89.3959 58.741 84.0889C58.9663 82.5451 58.9937 82.0892 58.9937 79.996C58.9937 77.9029 58.9663 77.4469 58.741 75.9032C57.2135 65.3496 49.7024 56.4827 39.5155 53.1974C37.7187 52.6151 35.8066 52.214 33.6637 51.9723C33.1362 51.9173 29.5043 51.8569 29.0483 51.9009ZM40.5539 68.8986C40.8177 69.0305 41.032 69.2832 41.1089 69.5469C41.1528 69.6897 41.1638 72.7442 41.1528 79.6279L41.1364 89.5057L39.3946 86.8358L37.6473 84.1658V76.9854C37.6473 72.3432 37.6693 69.7337 37.7022 69.6073C37.7902 69.2996 37.9825 69.0579 38.2462 68.9151C38.4715 68.7997 38.5539 68.7887 39.4166 68.7887C40.2297 68.7887 40.3726 68.7997 40.5539 68.8986Z" fill="black"/>
</g>
<g filter="url(#filter1_f_2104_310)">
<path d="M182.543 51.9009C182.423 51.9119 182.038 51.9503 181.692 51.9778C173.708 52.6975 166.23 57.0046 161.494 63.6246C158.856 67.3054 157.169 71.4807 156.532 75.9032C156.307 77.4469 156.279 77.9029 156.279 79.996C156.279 82.0892 156.307 82.5451 156.532 84.0889C158.06 94.6424 165.571 103.509 175.758 106.795C177.582 107.382 179.505 107.784 181.692 108.025C182.543 108.119 186.225 108.119 187.076 108.025C190.851 107.608 194.049 106.674 197.203 105.064C197.686 104.817 197.78 104.751 197.714 104.696C197.67 104.663 195.61 101.9 193.137 98.5595L188.642 92.4889L183.01 84.1548C179.911 79.573 177.362 75.8263 177.34 75.8263C177.318 75.8208 177.296 79.5236 177.285 84.0449C177.269 91.9615 177.263 92.2801 177.164 92.4669C177.021 92.7361 176.911 92.846 176.681 92.9668C176.505 93.0547 176.351 93.0712 175.521 93.0712H174.571L174.318 92.9119C174.153 92.8075 174.032 92.6702 173.95 92.5108L173.834 92.2636L173.845 81.2486L173.862 70.2281L174.032 70.0138C174.12 69.8985 174.307 69.7501 174.439 69.6787C174.664 69.5688 174.752 69.5579 175.703 69.5579C176.824 69.5579 177.01 69.6018 177.302 69.9204C177.384 70.0083 180.433 74.6011 184.082 80.1334C187.73 85.6656 192.719 93.2195 195.17 96.9278L199.621 103.669L199.846 103.52C201.84 102.224 203.95 100.378 205.621 98.4551C209.176 94.3732 211.467 89.3959 212.236 84.0889C212.461 82.5451 212.489 82.0892 212.489 79.996C212.489 77.9029 212.461 77.4469 212.236 75.9032C210.709 65.3496 203.198 56.4827 193.011 53.1974C191.214 52.6151 189.302 52.214 187.159 51.9723C186.631 51.9173 182.999 51.8569 182.543 51.9009ZM194.049 68.8986C194.313 69.0305 194.527 69.2832 194.604 69.5469C194.648 69.6897 194.659 72.7442 194.648 79.6279L194.631 89.5057L192.89 86.8358L191.142 84.1658V76.9854C191.142 72.3432 191.164 69.7337 191.197 69.6073C191.285 69.2996 191.478 69.0579 191.741 68.9151C191.967 68.7997 192.049 68.7887 192.912 68.7887C193.725 68.7887 193.868 68.7997 194.049 68.8986Z" fill="black"/>
</g>
<path d="M249.062 39.5511C248.911 38.2064 248.286 37.1648 247.188 36.4261C246.089 35.678 244.706 35.304 243.04 35.304C241.847 35.304 240.814 35.4934 239.943 35.8722C239.072 36.2415 238.395 36.7528 237.912 37.4062C237.438 38.0502 237.202 38.7841 237.202 39.608C237.202 40.2992 237.363 40.8958 237.685 41.3977C238.016 41.8996 238.447 42.321 238.977 42.6619C239.517 42.9934 240.095 43.2727 240.71 43.5C241.326 43.7178 241.918 43.8977 242.486 44.0398L245.327 44.7784C246.255 45.0057 247.206 45.3134 248.182 45.7017C249.157 46.09 250.062 46.6013 250.895 47.2358C251.728 47.8703 252.401 48.6562 252.912 49.5938C253.433 50.5312 253.693 51.6534 253.693 52.9602C253.693 54.608 253.267 56.071 252.415 57.3494C251.572 58.6278 250.346 59.6364 248.736 60.375C247.135 61.1136 245.199 61.483 242.926 61.483C240.748 61.483 238.864 61.1373 237.273 60.446C235.682 59.7547 234.437 58.7746 233.537 57.5057C232.637 56.2273 232.14 54.7121 232.045 52.9602H236.449C236.534 54.0114 236.875 54.8873 237.472 55.5881C238.078 56.2794 238.849 56.7955 239.787 57.1364C240.734 57.4678 241.771 57.6335 242.898 57.6335C244.138 57.6335 245.241 57.4394 246.207 57.0511C247.183 56.6534 247.95 56.1042 248.509 55.4034C249.067 54.6932 249.347 53.8646 249.347 52.9176C249.347 52.0559 249.1 51.3504 248.608 50.8011C248.125 50.2519 247.467 49.7973 246.634 49.4375C245.81 49.0777 244.877 48.7604 243.835 48.4858L240.398 47.5483C238.068 46.9138 236.222 45.9811 234.858 44.75C233.504 43.5189 232.827 41.8902 232.827 39.8636C232.827 38.1875 233.281 36.7244 234.19 35.4744C235.099 34.2244 236.33 33.2538 237.884 32.5625C239.437 31.8617 241.188 31.5114 243.139 31.5114C245.109 31.5114 246.847 31.857 248.352 32.5483C249.867 33.2396 251.061 34.1913 251.932 35.4034C252.803 36.6061 253.258 37.9886 253.295 39.5511H249.062ZM258.938 61V31.9091H277.177V35.6875H263.327V44.5511H276.225V48.3153H263.327V57.2216H277.347V61H258.938ZM308.31 46.4545C308.31 49.5606 307.741 52.2311 306.605 54.4659C305.469 56.6913 303.911 58.4053 301.932 59.608C299.962 60.8011 297.723 61.3977 295.213 61.3977C292.694 61.3977 290.445 60.8011 288.466 59.608C286.496 58.4053 284.943 56.6866 283.807 54.4517C282.67 52.2169 282.102 49.5511 282.102 46.4545C282.102 43.3485 282.67 40.6828 283.807 38.4574C284.943 36.2225 286.496 34.5085 288.466 33.3153C290.445 32.1127 292.694 31.5114 295.213 31.5114C297.723 31.5114 299.962 32.1127 301.932 33.3153C303.911 34.5085 305.469 36.2225 306.605 38.4574C307.741 40.6828 308.31 43.3485 308.31 46.4545ZM303.963 46.4545C303.963 44.0871 303.58 42.0937 302.812 40.4744C302.055 38.8456 301.013 37.6146 299.688 36.7812C298.371 35.9384 296.88 35.517 295.213 35.517C293.537 35.517 292.041 35.9384 290.724 36.7812C289.408 37.6146 288.366 38.8456 287.599 40.4744C286.842 42.0937 286.463 44.0871 286.463 46.4545C286.463 48.822 286.842 50.8201 287.599 52.4489C288.366 54.0682 289.408 55.2992 290.724 56.142C292.041 56.9754 293.537 57.392 295.213 57.392C296.88 57.392 298.371 56.9754 299.688 56.142C301.013 55.2992 302.055 54.0682 302.812 52.4489C303.58 50.8201 303.963 48.822 303.963 46.4545Z" fill="#FF0000"/>
<path d="M322.768 6.23223C321.791 5.25592 320.209 5.25592 319.232 6.23223L303.322 22.1421C302.346 23.1184 302.346 24.7014 303.322 25.6777C304.299 26.654 305.882 26.654 306.858 25.6777L321 11.5355L335.142 25.6777C336.118 26.654 337.701 26.654 338.678 25.6777C339.654 24.7014 339.654 23.1184 338.678 22.1421L322.768 6.23223ZM323.5 64L323.5 8L318.5 8L318.5 64L323.5 64Z" fill="#07FF4D"/>
<defs>
<filter id="filter0_f_2104_310" x="0.88418" y="49.9857" width="60.01" height="60.0095" filterUnits="userSpaceOnUse" color-interpolation-filters="sRGB">
<feFlood flood-opacity="0" result="BackgroundImageFix"/>
<feBlend mode="normal" in="SourceGraphic" in2="BackgroundImageFix" result="shape"/>
<feGaussianBlur stdDeviation="0.95" result="effect1_foregroundBlur_2104_310"/>
</filter>
<filter id="filter1_f_2104_310" x="154.379" y="49.9857" width="60.01" height="60.0095" filterUnits="userSpaceOnUse" color-interpolation-filters="sRGB">
<feFlood flood-opacity="0" result="BackgroundImageFix"/>
<feBlend mode="normal" in="SourceGraphic" in2="BackgroundImageFix" result="shape"/>
<feGaussianBlur stdDeviation="0.95" result="effect1_foregroundBlur_2104_310"/>
</filter>
<linearGradient id="paint0_linear_2104_310" x1="102.772" y1="149.172" x2="133.579" y2="149.172" gradientUnits="userSpaceOnUse">
<stop stop-color="#4C4C4C"/>
<stop offset="1" stop-color="#B2B2B2"/>
</linearGradient>
</defs>
</svg>
