<svg width="620" height="283" viewBox="0 0 620 283" fill="none" xmlns="http://www.w3.org/2000/svg">
<rect x="373.561" y="197.315" width="73.601" height="15.0976" rx="7.54882" fill="#2F3883"/>
<rect x="402.812" y="184.104" width="15.0976" height="24.5337" rx="7.54882" fill="#2F3883"/>
<rect x="316" y="73.7029" width="177.397" height="109.458" rx="22" fill="#2F3883"/>
<rect x="321.661" y="70.8721" width="177.397" height="109.458" rx="22" fill="#00A1C4"/>
<path d="M339.648 112.278V109.551L361.602 98.3692V102.733L344.761 110.846L344.898 110.574V111.256L344.761 110.983L361.602 119.096V123.46L339.648 112.278ZM382.47 88.0056L371.22 129.801H367.538L378.788 88.0056H382.47ZM410.352 112.278L388.398 123.46V119.096L405.238 110.983L405.102 111.256V110.574L405.238 110.846L388.398 102.733V98.3692L410.352 109.551V112.278Z" fill="white"/>
<rect x="345.252" y="140.699" width="26.4209" height="8.49242" rx="4.24621" fill="white"/>
<rect x="338.646" y="78.4209" width="26.4209" height="8.49242" rx="4.24621" fill="white"/>
<rect x="370.729" y="78.4209" width="13.2104" height="8.49242" rx="4.24621" fill="white"/>
<rect x="383.939" y="140.699" width="109.458" height="8.49242" rx="4.24621" fill="white"/>
<rect x="366.954" y="157.683" width="102.853" height="8.49242" rx="4.24621" fill="white"/>
<rect x="419.796" y="68.0413" width="9.43602" height="34.9133" fill="white"/>
<rect x="475.469" y="68.0413" width="9.43602" height="34.9133" fill="white"/>
<rect x="343.364" y="157.683" width="16.9848" height="8.49242" rx="4.24621" fill="white"/>
<rect x="476.412" y="157.683" width="16.9848" height="8.49242" rx="4.24621" fill="white"/>
<path d="M452.35 122.883C460.631 122.883 468.219 120.686 473.797 117.028C479.358 113.381 483.13 108.114 483.13 102.011C483.13 95.907 479.358 90.6403 473.797 86.9937C468.219 83.3358 460.631 81.1387 452.35 81.1387C444.07 81.1387 436.481 83.3358 430.903 86.9937C425.342 90.6403 421.57 95.907 421.57 102.011C421.57 108.114 425.342 113.381 430.903 117.028C436.481 120.686 444.07 122.883 452.35 122.883Z" fill="#2F3883" stroke="white" stroke-width="4"/>
<path d="M452.35 106.785C460.464 106.785 467.856 104.631 473.249 101.094C478.634 97.5632 482.13 92.5708 482.13 86.9133C482.13 81.2558 478.634 76.2634 473.249 72.7325C467.856 69.196 460.464 67.0413 452.35 67.0413C444.236 67.0413 436.845 69.196 431.451 72.7325C426.067 76.2634 422.57 81.2558 422.57 86.9133C422.57 92.5708 426.067 97.5632 431.451 101.094C436.845 104.631 444.236 106.785 452.35 106.785Z" fill="#2F3883" stroke="white" stroke-width="2"/>
<path d="M452.35 91.7441C460.631 91.7441 468.219 89.5469 473.797 85.8891C479.358 82.2425 483.13 76.9758 483.13 70.872C483.13 64.7683 479.358 59.5016 473.797 55.855C468.219 52.1972 460.631 50 452.35 50C444.07 50 436.481 52.1972 430.903 55.855C425.342 59.5016 421.57 64.7683 421.57 70.872C421.57 76.9758 425.342 82.2425 430.903 85.8891C436.481 89.5469 444.07 91.7441 452.35 91.7441Z" fill="#00A1C4" stroke="white" stroke-width="4"/>
<path d="M400.044 55.0035C400.044 55.0035 415.604 29.9875 367.601 32.3382C338.873 33.745 293.455 34.1653 261.614 34.276M261.614 34.276C240.252 34.3503 225 34.2852 225 34.2852L261.614 34.276Z" stroke="url(#paint0_linear_2103_309)" stroke-width="3"/>
<path d="M413.646 43.2936C413.646 43.2936 430.408 16.3458 378.699 18.878C347.752 20.3935 298.827 20.8462 264.527 20.9655M264.527 20.9655C241.515 21.0455 225.086 20.9754 225.086 20.9754L264.527 20.9655Z" stroke="url(#paint1_linear_2103_309)" stroke-width="3"/>
<path d="M379.988 63.6486C379.988 63.6486 393.648 41.6874 351.507 43.751C326.287 44.986 286.415 45.355 258.462 45.4522M258.462 45.4522C239.708 45.5174 226.319 45.4603 226.319 45.4603L258.462 45.4522Z" stroke="url(#paint2_linear_2103_309)" stroke-width="3"/>
<path d="M391.324 222.489C391.324 222.489 406.553 246.973 359.571 244.672C331.453 243.295 287 242.884 255.836 242.776M255.836 242.776C234.927 242.703 220 242.767 220 242.767L255.836 242.776Z" stroke="url(#paint3_linear_2103_309)" stroke-width="3"/>
<path d="M404.638 233.95C404.638 233.95 421.043 260.325 370.432 257.847C340.143 256.363 292.258 255.92 258.687 255.804M258.687 255.804C236.163 255.725 220.084 255.794 220.084 255.794L258.687 255.804Z" stroke="url(#paint4_linear_2103_309)" stroke-width="3"/>
<path d="M371.695 214.027C371.695 214.027 385.065 235.522 343.819 233.502C319.135 232.293 280.11 231.932 252.751 231.837M252.751 231.837C234.396 231.773 221.291 231.829 221.291 231.829L252.751 231.837Z" stroke="url(#paint5_linear_2103_309)" stroke-width="3"/>
<rect x="1" y="15" width="213.65" height="267.968" rx="11" fill="#D9D9D9"/>
<rect x="1" y="15" width="213.65" height="265.554" rx="11" fill="#E5E5E5"/>
<rect x="1" y="15" width="213.65" height="127.949" rx="11" fill="white"/>
<path d="M1 26C1 19.9249 5.92487 15 12 15H28.7625V42.7625H1V26Z" fill="#FF5E5E"/>
<path d="M1 26C1 19.9249 5.92487 15 12 15H28.7625V42.7625H1V26Z" fill="#FF5E5E"/>
<path d="M1 26C1 19.9249 5.92487 15 12 15H28.7625V42.7625H1V26Z" fill="#FF5E5E"/>
<path d="M1 26C1 19.9249 5.92487 15 12 15H28.7625V42.7625H1V26Z" fill="#FF5E5E"/>
<path d="M1 26C1 19.9249 5.92487 15 12 15H28.7625V42.7625H1V26Z" fill="#6F6F6F"/>
<ellipse opacity="0.08" cx="113.257" cy="95.2698" rx="94.151" ry="35.6084" fill="#4C4C4C"/>
<path d="M17.8994 26C17.8994 19.9249 22.8243 15 28.8994 15H203.651C209.726 15 214.651 19.9249 214.651 26V42.7625H17.8994V26Z" fill="#FF5E5E"/>
<path d="M17.8994 26C17.8994 19.9249 22.8243 15 28.8994 15H203.651C209.726 15 214.651 19.9249 214.651 26V42.7625H17.8994V26Z" fill="#FF5E5E"/>
<path d="M17.8994 26C17.8994 19.9249 22.8243 15 28.8994 15H203.651C209.726 15 214.651 19.9249 214.651 26V42.7625H17.8994V26Z" fill="#FF5E5E"/>
<path d="M17.8994 26C17.8994 19.9249 22.8243 15 28.8994 15H203.651C209.726 15 214.651 19.9249 214.651 26V42.7625H17.8994V26Z" fill="#5EFF6E"/>
<path d="M17.8994 26C17.8994 19.9249 22.8243 15 28.8994 15H203.651C209.726 15 214.651 19.9249 214.651 26V42.7625H17.8994V26Z" fill="black"/>
<rect x="39.626" y="153.812" width="136.398" height="21.7272" rx="9" fill="url(#paint6_linear_2103_309)"/>
<rect x="16.6914" y="250.378" width="42.2473" height="4.82826" rx="2.41413" fill="#D9D9D9"/>
<rect x="86.7012" y="250.378" width="42.2473" height="4.82826" rx="2.41413" fill="#D9D9D9"/>
<rect x="156.711" y="250.378" width="42.2473" height="4.82826" rx="2.41413" fill="#D9D9D9"/>
<rect x="16.6914" y="257.62" width="42.2473" height="4.82826" rx="2.41413" fill="#D9D9D9"/>
<rect x="86.7012" y="257.62" width="42.2473" height="4.82826" rx="2.41413" fill="#D9D9D9"/>
<rect x="156.711" y="257.62" width="42.2473" height="4.82826" rx="2.41413" fill="#D9D9D9"/>
<rect x="16.6914" y="264.862" width="42.2473" height="4.82826" rx="2.41413" fill="#D9D9D9"/>
<rect x="86.7012" y="264.862" width="42.2473" height="4.82826" rx="2.41413" fill="#D9D9D9"/>
<rect x="156.711" y="264.862" width="42.2473" height="4.82826" rx="2.41413" fill="#D9D9D9"/>
<rect x="16.6934" y="185.196" width="42.2473" height="57.9391" rx="9" fill="black"/>
<rect x="19.1074" y="188.817" width="19.313" height="19.313" rx="9" fill="white"/>
<rect x="85.4941" y="185.196" width="45.8684" height="57.9391" rx="9" fill="black"/>
<rect x="153.091" y="185.196" width="45.8684" height="57.9391" rx="9" fill="black"/>
<rect x="89.1152" y="188.817" width="19.313" height="19.313" rx="9" fill="#45924C"/>
<rect x="89.1152" y="188.817" width="19.313" height="19.313" rx="9" fill="#45924C"/>
<rect x="89.1152" y="188.817" width="19.313" height="19.313" rx="9" fill="#45924C"/>
<rect x="89.1152" y="188.817" width="19.313" height="19.313" rx="9" fill="white"/>
<rect x="156.711" y="188.817" width="19.313" height="19.313" rx="9" fill="#45924C"/>
<rect x="156.711" y="188.817" width="19.313" height="19.313" rx="9" fill="#45924C"/>
<rect x="156.711" y="188.817" width="19.313" height="19.313" rx="9" fill="#45924C"/>
<rect x="156.711" y="188.817" width="19.313" height="19.313" rx="9" fill="white"/>
<path d="M104.663 49.615C104.468 49.6328 103.846 49.6949 103.287 49.7393C90.3906 50.9018 78.3105 57.8595 70.6595 68.5533C66.3991 74.4993 63.6742 81.2439 62.6446 88.3879C62.2807 90.8817 62.2363 91.6183 62.2363 94.9995C62.2363 98.3807 62.2807 99.1173 62.6446 101.611C65.1121 118.659 77.2454 132.983 93.7013 138.29C96.648 139.239 99.7546 139.887 103.287 140.277C104.663 140.428 110.61 140.428 111.986 140.277C118.083 139.603 123.249 138.094 128.344 135.494C129.125 135.095 129.276 134.988 129.169 134.9C129.098 134.846 125.77 130.382 121.776 124.987L114.515 115.18L105.417 101.718C100.411 94.3162 96.293 88.2637 96.2575 88.2637C96.222 88.2548 96.1865 94.2363 96.1687 101.54C96.1421 114.328 96.1332 114.843 95.9735 115.145C95.7427 115.58 95.5652 115.757 95.1924 115.952C94.9084 116.094 94.6599 116.121 93.3196 116.121H91.7841L91.3758 115.864C91.1095 115.695 90.9142 115.473 90.7811 115.216L90.5947 114.816L90.6125 97.0229L90.6391 79.2205L90.9142 78.8744C91.0563 78.6881 91.358 78.4484 91.571 78.3331C91.935 78.1556 92.077 78.1378 93.6125 78.1378C95.4232 78.1378 95.725 78.2088 96.1954 78.7236C96.3285 78.8656 101.255 86.2847 107.148 95.2214C113.042 104.158 121.101 116.361 125.06 122.351L132.249 133.24L132.613 133C135.835 130.906 139.243 127.924 141.942 124.818C147.684 118.224 151.385 110.184 152.628 101.611C152.992 99.1173 153.036 98.3807 153.036 94.9995C153.036 91.6183 152.992 90.8817 152.628 88.3879C150.161 71.3399 138.027 57.0164 121.571 51.7094C118.669 50.7687 115.58 50.1209 112.119 49.7304C111.267 49.6416 105.4 49.544 104.663 49.615ZM123.249 77.0729C123.675 77.2859 124.021 77.6941 124.145 78.1201C124.216 78.3508 124.234 83.2851 124.216 94.4049L124.19 110.361L121.376 106.048L118.554 101.735V90.1362C118.554 82.6372 118.589 78.4218 118.642 78.2177C118.784 77.7207 119.095 77.3303 119.521 77.0995C119.885 76.9131 120.018 76.8954 121.412 76.8954C122.725 76.8954 122.956 76.9131 123.249 77.0729Z" fill="black"/>
<g filter="url(#filter0_f_2103_309)">
<path d="M29.0483 66.9009C28.9274 66.9119 28.5428 66.9503 28.1966 66.9778C20.213 67.6975 12.7349 72.0046 7.99854 78.6246C5.36114 82.3054 3.6743 86.4807 3.03693 90.9032C2.81165 92.4469 2.78418 92.9029 2.78418 94.996C2.78418 97.0892 2.81165 97.5451 3.03693 99.0889C4.56442 109.642 12.0755 118.509 22.2625 121.795C24.0867 122.382 26.0098 122.784 28.1966 123.025C29.0483 123.119 32.7296 123.119 33.5813 123.025C37.3561 122.608 40.5539 121.674 43.7078 120.064C44.1913 119.817 44.2847 119.751 44.2188 119.696C44.1749 119.663 42.1144 116.9 39.6418 113.559L35.1473 107.489L29.5153 99.1548C26.4164 94.573 23.8669 90.8263 23.8449 90.8263C23.8229 90.8208 23.801 94.5236 23.79 99.0449C23.7735 106.961 23.768 107.28 23.6691 107.467C23.5262 107.736 23.4163 107.846 23.1856 107.967C23.0097 108.055 22.8559 108.071 22.0262 108.071H21.0756L20.8229 107.912C20.6581 107.808 20.5372 107.67 20.4548 107.511L20.3394 107.264L20.3504 96.2486L20.3668 85.2281L20.5372 85.0138C20.6251 84.8985 20.8119 84.7501 20.9438 84.6787C21.169 84.5688 21.257 84.5579 22.2075 84.5579C23.3284 84.5579 23.5152 84.6018 23.8064 84.9204C23.8889 85.0083 26.9384 89.6011 30.5868 95.1334C34.2352 100.666 39.2242 108.22 41.6748 111.928L46.1254 118.669L46.3507 118.52C48.3452 117.224 50.4552 115.378 52.1255 113.455C55.6805 109.373 57.9718 104.396 58.741 99.0889C58.9663 97.5451 58.9937 97.0892 58.9937 94.996C58.9937 92.9029 58.9663 92.4469 58.741 90.9032C57.2135 80.3496 49.7024 71.4827 39.5155 68.1974C37.7187 67.6151 35.8066 67.214 33.6637 66.9723C33.1362 66.9173 29.5043 66.8569 29.0483 66.9009ZM40.5539 83.8986C40.8177 84.0305 41.032 84.2832 41.1089 84.5469C41.1528 84.6897 41.1638 87.7442 41.1528 94.6279L41.1364 104.506L39.3946 101.836L37.6473 99.1658V91.9854C37.6473 87.3432 37.6693 84.7337 37.7022 84.6073C37.7902 84.2996 37.9825 84.0579 38.2462 83.9151C38.4715 83.7997 38.5539 83.7887 39.4166 83.7887C40.2297 83.7887 40.3726 83.7997 40.5539 83.8986Z" fill="black"/>
</g>
<g filter="url(#filter1_f_2103_309)">
<path d="M182.543 66.9009C182.423 66.9119 182.038 66.9503 181.692 66.9778C173.708 67.6975 166.23 72.0046 161.494 78.6246C158.856 82.3054 157.169 86.4807 156.532 90.9032C156.307 92.4469 156.279 92.9029 156.279 94.996C156.279 97.0892 156.307 97.5451 156.532 99.0889C158.06 109.642 165.571 118.509 175.758 121.795C177.582 122.382 179.505 122.784 181.692 123.025C182.543 123.119 186.225 123.119 187.076 123.025C190.851 122.608 194.049 121.674 197.203 120.064C197.686 119.817 197.78 119.751 197.714 119.696C197.67 119.663 195.61 116.9 193.137 113.559L188.642 107.489L183.01 99.1548C179.911 94.573 177.362 90.8263 177.34 90.8263C177.318 90.8208 177.296 94.5236 177.285 99.0449C177.269 106.961 177.263 107.28 177.164 107.467C177.021 107.736 176.911 107.846 176.681 107.967C176.505 108.055 176.351 108.071 175.521 108.071H174.571L174.318 107.912C174.153 107.808 174.032 107.67 173.95 107.511L173.834 107.264L173.845 96.2486L173.862 85.2281L174.032 85.0138C174.12 84.8985 174.307 84.7501 174.439 84.6787C174.664 84.5688 174.752 84.5579 175.703 84.5579C176.824 84.5579 177.01 84.6018 177.302 84.9204C177.384 85.0083 180.433 89.6011 184.082 95.1334C187.73 100.666 192.719 108.22 195.17 111.928L199.621 118.669L199.846 118.52C201.84 117.224 203.95 115.378 205.621 113.455C209.176 109.373 211.467 104.396 212.236 99.0889C212.461 97.5451 212.489 97.0892 212.489 94.996C212.489 92.9029 212.461 92.4469 212.236 90.9032C210.709 80.3496 203.198 71.4827 193.011 68.1974C191.214 67.6151 189.302 67.214 187.159 66.9723C186.631 66.9173 182.999 66.8569 182.543 66.9009ZM194.049 83.8986C194.313 84.0305 194.527 84.2832 194.604 84.5469C194.648 84.6897 194.659 87.7442 194.648 94.6279L194.631 104.506L192.89 101.836L191.142 99.1658V91.9854C191.142 87.3432 191.164 84.7337 191.197 84.6073C191.285 84.2996 191.478 84.0579 191.741 83.9151C191.967 83.7997 192.049 83.7887 192.912 83.7887C193.725 83.7887 193.868 83.7997 194.049 83.8986Z" fill="black"/>
</g>
<path d="M529.062 39.5511C528.911 38.2064 528.286 37.1648 527.188 36.4261C526.089 35.678 524.706 35.304 523.04 35.304C521.847 35.304 520.814 35.4934 519.943 35.8722C519.072 36.2415 518.395 36.7528 517.912 37.4062C517.438 38.0502 517.202 38.7841 517.202 39.608C517.202 40.2992 517.363 40.8958 517.685 41.3977C518.016 41.8996 518.447 42.321 518.977 42.6619C519.517 42.9934 520.095 43.2727 520.71 43.5C521.326 43.7178 521.918 43.8977 522.486 44.0398L525.327 44.7784C526.255 45.0057 527.206 45.3134 528.182 45.7017C529.157 46.09 530.062 46.6013 530.895 47.2358C531.728 47.8703 532.401 48.6562 532.912 49.5938C533.433 50.5312 533.693 51.6534 533.693 52.9602C533.693 54.608 533.267 56.071 532.415 57.3494C531.572 58.6278 530.346 59.6364 528.736 60.375C527.135 61.1136 525.199 61.483 522.926 61.483C520.748 61.483 518.864 61.1373 517.273 60.446C515.682 59.7547 514.437 58.7746 513.537 57.5057C512.637 56.2273 512.14 54.7121 512.045 52.9602H516.449C516.534 54.0114 516.875 54.8873 517.472 55.5881C518.078 56.2794 518.849 56.7955 519.787 57.1364C520.734 57.4678 521.771 57.6335 522.898 57.6335C524.138 57.6335 525.241 57.4394 526.207 57.0511C527.183 56.6534 527.95 56.1042 528.509 55.4034C529.067 54.6932 529.347 53.8646 529.347 52.9176C529.347 52.0559 529.1 51.3504 528.608 50.8011C528.125 50.2519 527.467 49.7973 526.634 49.4375C525.81 49.0777 524.877 48.7604 523.835 48.4858L520.398 47.5483C518.068 46.9138 516.222 45.9811 514.858 44.75C513.504 43.5189 512.827 41.8902 512.827 39.8636C512.827 38.1875 513.281 36.7244 514.19 35.4744C515.099 34.2244 516.33 33.2538 517.884 32.5625C519.437 31.8617 521.188 31.5114 523.139 31.5114C525.109 31.5114 526.847 31.857 528.352 32.5483C529.867 33.2396 531.061 34.1913 531.932 35.4034C532.803 36.6061 533.258 37.9886 533.295 39.5511H529.062ZM538.938 61V31.9091H557.177V35.6875H543.327V44.5511H556.225V48.3153H543.327V57.2216H557.347V61H538.938ZM588.31 46.4545C588.31 49.5606 587.741 52.2311 586.605 54.4659C585.469 56.6913 583.911 58.4053 581.932 59.608C579.962 60.8011 577.723 61.3977 575.213 61.3977C572.694 61.3977 570.445 60.8011 568.466 59.608C566.496 58.4053 564.943 56.6866 563.807 54.4517C562.67 52.2169 562.102 49.5511 562.102 46.4545C562.102 43.3485 562.67 40.6828 563.807 38.4574C564.943 36.2225 566.496 34.5085 568.466 33.3153C570.445 32.1127 572.694 31.5114 575.213 31.5114C577.723 31.5114 579.962 32.1127 581.932 33.3153C583.911 34.5085 585.469 36.2225 586.605 38.4574C587.741 40.6828 588.31 43.3485 588.31 46.4545ZM583.963 46.4545C583.963 44.0871 583.58 42.0937 582.812 40.4744C582.055 38.8456 581.013 37.6146 579.688 36.7812C578.371 35.9384 576.88 35.517 575.213 35.517C573.537 35.517 572.041 35.9384 570.724 36.7812C569.408 37.6146 568.366 38.8456 567.599 40.4744C566.842 42.0937 566.463 44.0871 566.463 46.4545C566.463 48.822 566.842 50.8201 567.599 52.4489C568.366 54.0682 569.408 55.2992 570.724 56.142C572.041 56.9754 573.537 57.392 575.213 57.392C576.88 57.392 578.371 56.9754 579.688 56.142C581.013 55.2992 582.055 54.0682 582.812 52.4489C583.58 50.8201 583.963 48.822 583.963 46.4545Z" fill="#FF0000"/>
<path d="M602.768 6.23223C601.791 5.25592 600.209 5.25592 599.232 6.23223L583.322 22.1421C582.346 23.1184 582.346 24.7014 583.322 25.6777C584.299 26.654 585.882 26.654 586.858 25.6777L601 11.5355L615.142 25.6777C616.118 26.654 617.701 26.654 618.678 25.6777C619.654 24.7014 619.654 23.1184 618.678 22.1421L602.768 6.23223ZM603.5 64L603.5 8L598.5 8L598.5 64L603.5 64Z" fill="#07FF4D"/>
<defs>
<filter id="filter0_f_2103_309" x="0.88418" y="64.9857" width="60.01" height="60.0095" filterUnits="userSpaceOnUse" color-interpolation-filters="sRGB">
<feFlood flood-opacity="0" result="BackgroundImageFix"/>
<feBlend mode="normal" in="SourceGraphic" in2="BackgroundImageFix" result="shape"/>
<feGaussianBlur stdDeviation="0.95" result="effect1_foregroundBlur_2103_309"/>
</filter>
<filter id="filter1_f_2103_309" x="154.379" y="64.9857" width="60.01" height="60.0095" filterUnits="userSpaceOnUse" color-interpolation-filters="sRGB">
<feFlood flood-opacity="0" result="BackgroundImageFix"/>
<feBlend mode="normal" in="SourceGraphic" in2="BackgroundImageFix" result="shape"/>
<feGaussianBlur stdDeviation="0.95" result="effect1_foregroundBlur_2103_309"/>
</filter>
<linearGradient id="paint0_linear_2103_309" x1="228.604" y1="24.5493" x2="389.55" y2="84.1162" gradientUnits="userSpaceOnUse">
<stop stop-color="#01F0FF"/>
<stop offset="1" stop-color="#2F3883"/>
</linearGradient>
<linearGradient id="paint1_linear_2103_309" x1="228.967" y1="10.4877" x2="402.342" y2="74.6545" gradientUnits="userSpaceOnUse">
<stop stop-color="#01F0FF"/>
<stop offset="1" stop-color="#2F3883"/>
</linearGradient>
<linearGradient id="paint2_linear_2103_309" x1="229.482" y1="36.9132" x2="370.775" y2="89.2064" gradientUnits="userSpaceOnUse">
<stop stop-color="#01F0FF"/>
<stop offset="1" stop-color="#2F3883"/>
</linearGradient>
<linearGradient id="paint3_linear_2103_309" x1="223.527" y1="252.296" x2="381.053" y2="193.995" gradientUnits="userSpaceOnUse">
<stop stop-color="#01F0FF"/>
<stop offset="1" stop-color="#2F3883"/>
</linearGradient>
<linearGradient id="paint4_linear_2103_309" x1="223.883" y1="266.059" x2="393.573" y2="203.255" gradientUnits="userSpaceOnUse">
<stop stop-color="#01F0FF"/>
<stop offset="1" stop-color="#2F3883"/>
</linearGradient>
<linearGradient id="paint5_linear_2103_309" x1="224.387" y1="240.195" x2="362.678" y2="189.013" gradientUnits="userSpaceOnUse">
<stop stop-color="#01F0FF"/>
<stop offset="1" stop-color="#2F3883"/>
</linearGradient>
<linearGradient id="paint6_linear_2103_309" x1="102.772" y1="164.172" x2="133.579" y2="164.172" gradientUnits="userSpaceOnUse">
<stop stop-color="#4C4C4C"/>
<stop offset="1" stop-color="#B2B2B2"/>
</linearGradient>
</defs>
</svg>
