<svg width="251" height="251" viewBox="0 0 251 251" fill="none" xmlns="http://www.w3.org/2000/svg">
<g clip-path="url(#clip0_6_38)">
<path d="M117.289 0.196022C116.75 0.245041 115.034 0.416606 113.49 0.539153C77.8783 3.74987 44.5212 22.9652 23.3941 52.4989C11.6296 68.9202 4.10528 87.5473 1.26219 107.277C0.257312 114.164 0.134766 116.199 0.134766 125.537C0.134766 134.875 0.257312 136.909 1.26219 143.796C8.07579 190.879 41.58 230.437 87.0203 245.093C95.1574 247.716 103.736 249.505 113.49 250.583C117.289 251 133.711 251 137.51 250.583C154.347 248.721 168.612 244.554 182.68 237.373C184.837 236.27 185.254 235.976 184.96 235.731C184.764 235.584 175.573 223.255 164.543 208.354L144.495 181.271L119.373 144.09C105.549 123.65 94.177 106.934 94.079 106.934C93.981 106.91 93.8829 123.429 93.8339 143.6C93.7604 178.918 93.7359 180.34 93.2947 181.173C92.6575 182.374 92.1673 182.864 91.1379 183.403C90.3536 183.795 89.6673 183.869 85.9664 183.869H81.7263L80.5989 183.158C79.8636 182.692 79.3244 182.08 78.9568 181.369L78.4421 180.266L78.4911 131.125L78.5646 81.9591L79.3244 81.0033C79.7165 80.4886 80.5499 79.8268 81.1381 79.5082C82.143 79.018 82.5351 78.969 86.7752 78.969C91.7751 78.969 92.6085 79.1651 93.9074 80.5866C94.2751 80.9788 107.878 101.469 124.152 126.149C140.426 150.83 162.681 184.531 173.612 201.074L193.464 231.147L194.469 230.486C203.366 224.701 212.778 216.466 220.229 207.888C236.086 189.678 246.306 167.472 249.738 143.796C250.743 136.909 250.865 134.875 250.865 125.537C250.865 116.199 250.743 114.164 249.738 107.277C242.924 60.1948 209.42 20.6368 163.98 5.98022C155.965 3.38223 147.436 1.59305 137.877 0.514644C135.524 0.26955 119.324 -5.21988e-05 117.289 0.196022ZM168.612 76.0279C169.788 76.6161 170.744 77.7435 171.087 78.92C171.283 79.5572 171.332 93.1844 171.283 123.895L171.21 167.962L163.44 156.051L155.646 144.139V112.106C155.646 91.3952 155.744 79.7533 155.892 79.1896C156.284 77.8171 157.142 76.7386 158.318 76.1014C159.323 75.5867 159.69 75.5377 163.538 75.5377C167.166 75.5377 167.803 75.5867 168.612 76.0279Z" fill="black"/>
<path d="M192.239 231.687C191.381 232.226 191.111 232.593 191.871 232.177C192.41 231.858 193.293 231.196 193.146 231.172C193.072 231.172 192.656 231.417 192.239 231.687ZM190.548 232.789C190.107 233.133 190.107 233.157 190.646 232.888C190.94 232.74 191.185 232.569 191.185 232.52C191.185 232.324 191.062 232.373 190.548 232.789ZM189.322 233.525C188.881 233.868 188.881 233.892 189.42 233.623C189.714 233.476 189.96 233.304 189.96 233.255C189.96 233.059 189.837 233.108 189.322 233.525ZM188.097 234.26C187.656 234.603 187.656 234.628 188.195 234.358C188.489 234.211 188.734 234.039 188.734 233.99C188.734 233.794 188.612 233.843 188.097 234.26ZM186.234 235.24C185.303 235.731 185.352 235.927 186.283 235.461C186.7 235.24 187.018 235.02 187.018 234.971C187.018 234.799 186.994 234.824 186.234 235.24Z" fill="black"/>
</g>
<defs>
<clipPath id="clip0_6_38">
<rect width="251" height="251" fill="white"/>
</clipPath>
</defs>
</svg>
