<svg width="636" height="290" viewBox="0 0 636 290" fill="none" xmlns="http://www.w3.org/2000/svg">
<rect x="408" y="209" width="78" height="16" rx="8" fill="black"/>
<rect x="439" y="195" width="16" height="26" rx="8" fill="black"/>
<rect x="347" y="78" width="188" height="116" rx="22" fill="black"/>
<rect x="353" y="75" width="188" height="116" rx="22" fill="#111F23"/>
<path d="M371.841 123.727V121L393.795 109.818V114.182L376.955 122.295L377.091 122.023V122.705L376.955 122.432L393.795 130.545V134.909L371.841 123.727ZM414.663 99.4545L403.413 141.25H399.732L410.982 99.4545H414.663ZM442.545 123.727L420.591 134.909V130.545L437.432 122.432L437.295 122.705V122.023L437.432 122.295L420.591 114.182V109.818L442.545 121V123.727Z" fill="white"/>
<rect x="378" y="149" width="28" height="9" rx="4.5" fill="white"/>
<rect x="371" y="83" width="28" height="9" rx="4.5" fill="white"/>
<rect x="405" y="83" width="14" height="9" rx="4.5" fill="white"/>
<rect x="419" y="149" width="116" height="9" rx="4.5" fill="white"/>
<rect x="401" y="167" width="109" height="9" rx="4.5" fill="white"/>
<rect x="457" y="72" width="10" height="37" fill="white"/>
<rect x="516" y="72" width="10" height="37" fill="white"/>
<rect x="376" y="167" width="18" height="9" rx="4.5" fill="white"/>
<rect x="517" y="167" width="18" height="9" rx="4.5" fill="white"/>
<path d="M491.5 130C500.256 130 508.274 127.677 514.163 123.815C520.036 119.964 524 114.415 524 108C524 101.585 520.036 96.0361 514.163 92.1854C508.274 88.3234 500.256 86 491.5 86C482.744 86 474.726 88.3234 468.837 92.1854C462.964 96.0361 459 101.585 459 108C459 114.415 462.964 119.964 468.837 123.815C474.726 127.677 482.744 130 491.5 130Z" fill="#111F23" stroke="white" stroke-width="4"/>
<path d="M491.5 113C500.089 113 507.911 110.719 513.615 106.978C519.311 103.243 523 97.969 523 92C523 86.031 519.311 80.7566 513.615 77.0216C507.911 73.281 500.089 71 491.5 71C482.911 71 475.089 73.281 469.385 77.0216C463.689 80.7566 460 86.031 460 92C460 97.969 463.689 103.243 469.385 106.978C475.089 110.719 482.911 113 491.5 113Z" fill="#111F23" stroke="white" stroke-width="2"/>
<path d="M491.5 97C500.256 97 508.274 94.6766 514.163 90.8146C520.036 86.9639 524 81.4152 524 75C524 68.5848 520.036 63.0361 514.163 59.1854C508.274 55.3234 500.256 53 491.5 53C482.744 53 474.726 55.3234 468.837 59.1854C462.964 63.0361 459 68.5848 459 75C459 81.4152 462.964 86.9639 468.837 90.8146C474.726 94.6766 482.744 97 491.5 97Z" fill="#00A1C4" stroke="white" stroke-width="4"/>
<path d="M400.044 62.0035C400.044 62.0035 415.604 36.9875 367.601 39.3382C338.873 40.745 293.455 41.1653 261.614 41.276M261.614 41.276C240.252 41.3503 225 41.2852 225 41.2852L261.614 41.276Z" stroke="url(#paint0_linear_2103_307)" stroke-width="3"/>
<path d="M413.646 50.2936C413.646 50.2936 430.408 23.3458 378.699 25.878C347.752 27.3935 298.827 27.8462 264.527 27.9655M264.527 27.9655C241.515 28.0455 225.086 27.9754 225.086 27.9754L264.527 27.9655Z" stroke="url(#paint1_linear_2103_307)" stroke-width="3"/>
<path d="M379.988 70.6486C379.988 70.6486 393.648 48.6874 351.507 50.751C326.287 51.986 286.415 52.355 258.462 52.4522M258.462 52.4522C239.708 52.5174 226.319 52.4603 226.319 52.4603L258.462 52.4522Z" stroke="url(#paint2_linear_2103_307)" stroke-width="3"/>
<path d="M391.324 208.489C391.324 208.489 406.553 232.973 359.571 230.672C331.453 229.295 287 228.884 255.836 228.776M255.836 228.776C234.927 228.703 220 228.767 220 228.767L255.836 228.776Z" stroke="url(#paint3_linear_2103_307)" stroke-width="3"/>
<path d="M404.638 219.95C404.638 219.95 421.043 246.325 370.432 243.847C340.143 242.363 292.258 241.92 258.687 241.804M258.687 241.804C236.163 241.725 220.084 241.794 220.084 241.794L258.687 241.804Z" stroke="url(#paint4_linear_2103_307)" stroke-width="3"/>
<path d="M371.695 200.027C371.695 200.027 385.065 221.522 343.819 219.502C319.135 218.293 280.11 217.932 252.751 217.837M252.751 217.837C234.396 217.773 221.291 217.829 221.291 217.829L252.751 217.837Z" stroke="url(#paint5_linear_2103_307)" stroke-width="3"/>
<rect x="1" y="22" width="213.65" height="267.968" rx="11" fill="#D9D9D9"/>
<rect x="1" y="22" width="213.65" height="265.554" rx="11" fill="#E5E5E5"/>
<rect x="1" y="22" width="213.65" height="127.949" rx="11" fill="white"/>
<path d="M1 33C1 26.9249 5.92487 22 12 22H28.7625V49.7625H1V33Z" fill="#FF5E5E"/>
<path d="M1 33C1 26.9249 5.92487 22 12 22H28.7625V49.7625H1V33Z" fill="#FF5E5E"/>
<path d="M1 33C1 26.9249 5.92487 22 12 22H28.7625V49.7625H1V33Z" fill="#FF5E5E"/>
<path d="M1 33C1 26.9249 5.92487 22 12 22H28.7625V49.7625H1V33Z" fill="#FF5E5E"/>
<path d="M1 33C1 26.9249 5.92487 22 12 22H28.7625V49.7625H1V33Z" fill="#6F6F6F"/>
<ellipse opacity="0.08" cx="113.257" cy="102.27" rx="94.151" ry="35.6084" fill="#4C4C4C"/>
<path d="M17.8994 33C17.8994 26.9249 22.8243 22 28.8994 22H203.651C209.726 22 214.651 26.9249 214.651 33V49.7625H17.8994V33Z" fill="#FF5E5E"/>
<path d="M17.8994 33C17.8994 26.9249 22.8243 22 28.8994 22H203.651C209.726 22 214.651 26.9249 214.651 33V49.7625H17.8994V33Z" fill="#FF5E5E"/>
<path d="M17.8994 33C17.8994 26.9249 22.8243 22 28.8994 22H203.651C209.726 22 214.651 26.9249 214.651 33V49.7625H17.8994V33Z" fill="#FF5E5E"/>
<path d="M17.8994 33C17.8994 26.9249 22.8243 22 28.8994 22H203.651C209.726 22 214.651 26.9249 214.651 33V49.7625H17.8994V33Z" fill="#5EFF6E"/>
<path d="M17.8994 33C17.8994 26.9249 22.8243 22 28.8994 22H203.651C209.726 22 214.651 26.9249 214.651 33V49.7625H17.8994V33Z" fill="black"/>
<rect x="39.626" y="160.812" width="136.398" height="21.7272" rx="9" fill="url(#paint6_linear_2103_307)"/>
<rect x="16.6914" y="257.378" width="42.2473" height="4.82826" rx="2.41413" fill="#D9D9D9"/>
<rect x="86.7012" y="257.378" width="42.2473" height="4.82826" rx="2.41413" fill="#D9D9D9"/>
<rect x="156.711" y="257.378" width="42.2473" height="4.82826" rx="2.41413" fill="#D9D9D9"/>
<rect x="16.6914" y="264.62" width="42.2473" height="4.82826" rx="2.41413" fill="#D9D9D9"/>
<rect x="86.7012" y="264.62" width="42.2473" height="4.82826" rx="2.41413" fill="#D9D9D9"/>
<rect x="156.711" y="264.62" width="42.2473" height="4.82826" rx="2.41413" fill="#D9D9D9"/>
<rect x="16.6914" y="271.862" width="42.2473" height="4.82826" rx="2.41413" fill="#D9D9D9"/>
<rect x="86.7012" y="271.862" width="42.2473" height="4.82826" rx="2.41413" fill="#D9D9D9"/>
<rect x="156.711" y="271.862" width="42.2473" height="4.82826" rx="2.41413" fill="#D9D9D9"/>
<rect x="16.6934" y="192.196" width="42.2473" height="57.9391" rx="9" fill="black"/>
<rect x="19.1074" y="195.817" width="19.313" height="19.313" rx="9" fill="white"/>
<rect x="85.4941" y="192.196" width="45.8684" height="57.9391" rx="9" fill="black"/>
<rect x="153.091" y="192.196" width="45.8684" height="57.9391" rx="9" fill="black"/>
<rect x="89.1152" y="195.817" width="19.313" height="19.313" rx="9" fill="#45924C"/>
<rect x="89.1152" y="195.817" width="19.313" height="19.313" rx="9" fill="#45924C"/>
<rect x="89.1152" y="195.817" width="19.313" height="19.313" rx="9" fill="#45924C"/>
<rect x="89.1152" y="195.817" width="19.313" height="19.313" rx="9" fill="white"/>
<rect x="156.711" y="195.817" width="19.313" height="19.313" rx="9" fill="#45924C"/>
<rect x="156.711" y="195.817" width="19.313" height="19.313" rx="9" fill="#45924C"/>
<rect x="156.711" y="195.817" width="19.313" height="19.313" rx="9" fill="#45924C"/>
<rect x="156.711" y="195.817" width="19.313" height="19.313" rx="9" fill="white"/>
<path d="M104.663 56.615C104.468 56.6328 103.846 56.6949 103.287 56.7393C90.3906 57.9018 78.3105 64.8595 70.6595 75.5533C66.3991 81.4993 63.6742 88.2439 62.6446 95.3879C62.2807 97.8817 62.2363 98.6183 62.2363 101.999C62.2363 105.381 62.2807 106.117 62.6446 108.611C65.1121 125.659 77.2454 139.983 93.7013 145.29C96.648 146.239 99.7546 146.887 103.287 147.277C104.663 147.428 110.61 147.428 111.986 147.277C118.083 146.603 123.249 145.094 128.344 142.494C129.125 142.095 129.276 141.988 129.169 141.9C129.098 141.846 125.77 137.382 121.776 131.987L114.515 122.18L105.417 108.718C100.411 101.316 96.293 95.2637 96.2575 95.2637C96.222 95.2548 96.1865 101.236 96.1687 108.54C96.1421 121.328 96.1332 121.843 95.9735 122.145C95.7427 122.58 95.5652 122.757 95.1924 122.952C94.9084 123.094 94.6599 123.121 93.3196 123.121H91.7841L91.3758 122.864C91.1095 122.695 90.9142 122.473 90.7811 122.216L90.5947 121.816L90.6125 104.023L90.6391 86.2205L90.9142 85.8744C91.0563 85.6881 91.358 85.4484 91.571 85.3331C91.935 85.1556 92.077 85.1378 93.6125 85.1378C95.4232 85.1378 95.725 85.2088 96.1954 85.7236C96.3285 85.8656 101.255 93.2847 107.148 102.221C113.042 111.158 121.101 123.361 125.06 129.351L132.249 140.24L132.613 140C135.835 137.906 139.243 134.924 141.942 131.818C147.684 125.224 151.385 117.184 152.628 108.611C152.992 106.117 153.036 105.381 153.036 101.999C153.036 98.6183 152.992 97.8817 152.628 95.3879C150.161 78.3399 138.027 64.0164 121.571 58.7094C118.669 57.7687 115.58 57.1209 112.119 56.7304C111.267 56.6416 105.4 56.544 104.663 56.615ZM123.249 84.0729C123.675 84.2859 124.021 84.6941 124.145 85.1201C124.216 85.3508 124.234 90.2851 124.216 101.405L124.19 117.361L121.376 113.048L118.554 108.735V97.1362C118.554 89.6372 118.589 85.4218 118.642 85.2177C118.784 84.7207 119.095 84.3303 119.521 84.0995C119.885 83.9131 120.018 83.8954 121.412 83.8954C122.725 83.8954 122.956 83.9131 123.249 84.0729Z" fill="black"/>
<g filter="url(#filter0_f_2103_307)">
<path d="M29.0483 73.9009C28.9274 73.9119 28.5428 73.9503 28.1966 73.9778C20.213 74.6975 12.7349 79.0046 7.99854 85.6246C5.36114 89.3054 3.6743 93.4807 3.03693 97.9032C2.81165 99.4469 2.78418 99.9029 2.78418 101.996C2.78418 104.089 2.81165 104.545 3.03693 106.089C4.56442 116.642 12.0755 125.509 22.2625 128.795C24.0867 129.382 26.0098 129.784 28.1966 130.025C29.0483 130.119 32.7296 130.119 33.5813 130.025C37.3561 129.608 40.5539 128.674 43.7078 127.064C44.1913 126.817 44.2847 126.751 44.2188 126.696C44.1749 126.663 42.1144 123.9 39.6418 120.559L35.1473 114.489L29.5153 106.155C26.4164 101.573 23.8669 97.8263 23.8449 97.8263C23.8229 97.8208 23.801 101.524 23.79 106.045C23.7735 113.961 23.768 114.28 23.6691 114.467C23.5262 114.736 23.4163 114.846 23.1856 114.967C23.0097 115.055 22.8559 115.071 22.0262 115.071H21.0756L20.8229 114.912C20.6581 114.808 20.5372 114.67 20.4548 114.511L20.3394 114.264L20.3504 103.249L20.3668 92.2281L20.5372 92.0138C20.6251 91.8985 20.8119 91.7501 20.9438 91.6787C21.169 91.5688 21.257 91.5579 22.2075 91.5579C23.3284 91.5579 23.5152 91.6018 23.8064 91.9204C23.8889 92.0083 26.9384 96.6011 30.5868 102.133C34.2352 107.666 39.2242 115.22 41.6748 118.928L46.1254 125.669L46.3507 125.52C48.3452 124.224 50.4552 122.378 52.1255 120.455C55.6805 116.373 57.9718 111.396 58.741 106.089C58.9663 104.545 58.9937 104.089 58.9937 101.996C58.9937 99.9029 58.9663 99.4469 58.741 97.9032C57.2135 87.3496 49.7024 78.4827 39.5155 75.1974C37.7187 74.6151 35.8066 74.214 33.6637 73.9723C33.1362 73.9173 29.5043 73.8569 29.0483 73.9009ZM40.5539 90.8986C40.8177 91.0305 41.032 91.2832 41.1089 91.5469C41.1528 91.6897 41.1638 94.7442 41.1528 101.628L41.1364 111.506L39.3946 108.836L37.6473 106.166V98.9854C37.6473 94.3432 37.6693 91.7337 37.7022 91.6073C37.7902 91.2996 37.9825 91.0579 38.2462 90.9151C38.4715 90.7997 38.5539 90.7887 39.4166 90.7887C40.2297 90.7887 40.3726 90.7997 40.5539 90.8986Z" fill="black"/>
</g>
<g filter="url(#filter1_f_2103_307)">
<path d="M182.543 73.9009C182.423 73.9119 182.038 73.9503 181.692 73.9778C173.708 74.6975 166.23 79.0046 161.494 85.6246C158.856 89.3054 157.169 93.4807 156.532 97.9032C156.307 99.4469 156.279 99.9029 156.279 101.996C156.279 104.089 156.307 104.545 156.532 106.089C158.06 116.642 165.571 125.509 175.758 128.795C177.582 129.382 179.505 129.784 181.692 130.025C182.543 130.119 186.225 130.119 187.076 130.025C190.851 129.608 194.049 128.674 197.203 127.064C197.686 126.817 197.78 126.751 197.714 126.696C197.67 126.663 195.61 123.9 193.137 120.559L188.642 114.489L183.01 106.155C179.911 101.573 177.362 97.8263 177.34 97.8263C177.318 97.8208 177.296 101.524 177.285 106.045C177.269 113.961 177.263 114.28 177.164 114.467C177.021 114.736 176.911 114.846 176.681 114.967C176.505 115.055 176.351 115.071 175.521 115.071H174.571L174.318 114.912C174.153 114.808 174.032 114.67 173.95 114.511L173.834 114.264L173.845 103.249L173.862 92.2281L174.032 92.0138C174.12 91.8985 174.307 91.7501 174.439 91.6787C174.664 91.5688 174.752 91.5579 175.703 91.5579C176.824 91.5579 177.01 91.6018 177.302 91.9204C177.384 92.0083 180.433 96.6011 184.082 102.133C187.73 107.666 192.719 115.22 195.17 118.928L199.621 125.669L199.846 125.52C201.84 124.224 203.95 122.378 205.621 120.455C209.176 116.373 211.467 111.396 212.236 106.089C212.461 104.545 212.489 104.089 212.489 101.996C212.489 99.9029 212.461 99.4469 212.236 97.9032C210.709 87.3496 203.198 78.4827 193.011 75.1974C191.214 74.6151 189.302 74.214 187.159 73.9723C186.631 73.9173 182.999 73.8569 182.543 73.9009ZM194.049 90.8986C194.313 91.0305 194.527 91.2832 194.604 91.5469C194.648 91.6897 194.659 94.7442 194.648 101.628L194.631 111.506L192.89 108.836L191.142 106.166V98.9854C191.142 94.3432 191.164 91.7337 191.197 91.6073C191.285 91.2996 191.478 91.0579 191.741 90.9151C191.967 90.7997 192.049 90.7887 192.912 90.7887C193.725 90.7887 193.868 90.7997 194.049 90.8986Z" fill="black"/>
</g>
<path d="M545.062 34.5511C544.911 33.2064 544.286 32.1648 543.188 31.4261C542.089 30.678 540.706 30.304 539.04 30.304C537.847 30.304 536.814 30.4934 535.943 30.8722C535.072 31.2415 534.395 31.7528 533.912 32.4062C533.438 33.0502 533.202 33.7841 533.202 34.608C533.202 35.2992 533.363 35.8958 533.685 36.3977C534.016 36.8996 534.447 37.321 534.977 37.6619C535.517 37.9934 536.095 38.2727 536.71 38.5C537.326 38.7178 537.918 38.8977 538.486 39.0398L541.327 39.7784C542.255 40.0057 543.206 40.3134 544.182 40.7017C545.157 41.09 546.062 41.6013 546.895 42.2358C547.728 42.8703 548.401 43.6562 548.912 44.5938C549.433 45.5312 549.693 46.6534 549.693 47.9602C549.693 49.608 549.267 51.071 548.415 52.3494C547.572 53.6278 546.346 54.6364 544.736 55.375C543.135 56.1136 541.199 56.483 538.926 56.483C536.748 56.483 534.864 56.1373 533.273 55.446C531.682 54.7547 530.437 53.7746 529.537 52.5057C528.637 51.2273 528.14 49.7121 528.045 47.9602H532.449C532.534 49.0114 532.875 49.8873 533.472 50.5881C534.078 51.2794 534.849 51.7955 535.787 52.1364C536.734 52.4678 537.771 52.6335 538.898 52.6335C540.138 52.6335 541.241 52.4394 542.207 52.0511C543.183 51.6534 543.95 51.1042 544.509 50.4034C545.067 49.6932 545.347 48.8646 545.347 47.9176C545.347 47.0559 545.1 46.3504 544.608 45.8011C544.125 45.2519 543.467 44.7973 542.634 44.4375C541.81 44.0777 540.877 43.7604 539.835 43.4858L536.398 42.5483C534.068 41.9138 532.222 40.9811 530.858 39.75C529.504 38.5189 528.827 36.8902 528.827 34.8636C528.827 33.1875 529.281 31.7244 530.19 30.4744C531.099 29.2244 532.33 28.2538 533.884 27.5625C535.437 26.8617 537.188 26.5114 539.139 26.5114C541.109 26.5114 542.847 26.857 544.352 27.5483C545.867 28.2396 547.061 29.1913 547.932 30.4034C548.803 31.6061 549.258 32.9886 549.295 34.5511H545.062ZM554.938 56V26.9091H573.177V30.6875H559.327V39.5511H572.225V43.3153H559.327V52.2216H573.347V56H554.938ZM604.31 41.4545C604.31 44.5606 603.741 47.2311 602.605 49.4659C601.469 51.6913 599.911 53.4053 597.932 54.608C595.962 55.8011 593.723 56.3977 591.213 56.3977C588.694 56.3977 586.445 55.8011 584.466 54.608C582.496 53.4053 580.943 51.6866 579.807 49.4517C578.67 47.2169 578.102 44.5511 578.102 41.4545C578.102 38.3485 578.67 35.6828 579.807 33.4574C580.943 31.2225 582.496 29.5085 584.466 28.3153C586.445 27.1127 588.694 26.5114 591.213 26.5114C593.723 26.5114 595.962 27.1127 597.932 28.3153C599.911 29.5085 601.469 31.2225 602.605 33.4574C603.741 35.6828 604.31 38.3485 604.31 41.4545ZM599.963 41.4545C599.963 39.0871 599.58 37.0937 598.812 35.4744C598.055 33.8456 597.013 32.6146 595.688 31.7812C594.371 30.9384 592.88 30.517 591.213 30.517C589.537 30.517 588.041 30.9384 586.724 31.7812C585.408 32.6146 584.366 33.8456 583.599 35.4744C582.842 37.0937 582.463 39.0871 582.463 41.4545C582.463 43.822 582.842 45.8201 583.599 47.4489C584.366 49.0682 585.408 50.2992 586.724 51.142C588.041 51.9754 589.537 52.392 591.213 52.392C592.88 52.392 594.371 51.9754 595.688 51.142C597.013 50.2992 598.055 49.0682 598.812 47.4489C599.58 45.8201 599.963 43.822 599.963 41.4545Z" fill="#FF0000"/>
<path d="M618.768 1.23223C617.791 0.255922 616.209 0.255922 615.232 1.23223L599.322 17.1421C598.346 18.1184 598.346 19.7014 599.322 20.6777C600.299 21.654 601.882 21.654 602.858 20.6777L617 6.53553L631.142 20.6777C632.118 21.654 633.701 21.654 634.678 20.6777C635.654 19.7014 635.654 18.1184 634.678 17.1421L618.768 1.23223ZM619.5 59L619.5 3L614.5 3L614.5 59L619.5 59Z" fill="#07FF4D"/>
<defs>
<filter id="filter0_f_2103_307" x="0.88418" y="71.9857" width="60.01" height="60.0095" filterUnits="userSpaceOnUse" color-interpolation-filters="sRGB">
<feFlood flood-opacity="0" result="BackgroundImageFix"/>
<feBlend mode="normal" in="SourceGraphic" in2="BackgroundImageFix" result="shape"/>
<feGaussianBlur stdDeviation="0.95" result="effect1_foregroundBlur_2103_307"/>
</filter>
<filter id="filter1_f_2103_307" x="154.379" y="71.9857" width="60.01" height="60.0095" filterUnits="userSpaceOnUse" color-interpolation-filters="sRGB">
<feFlood flood-opacity="0" result="BackgroundImageFix"/>
<feBlend mode="normal" in="SourceGraphic" in2="BackgroundImageFix" result="shape"/>
<feGaussianBlur stdDeviation="0.95" result="effect1_foregroundBlur_2103_307"/>
</filter>
<linearGradient id="paint0_linear_2103_307" x1="228.604" y1="31.5493" x2="389.55" y2="91.1162" gradientUnits="userSpaceOnUse">
<stop/>
<stop offset="1" stop-color="#2B2B2B"/>
</linearGradient>
<linearGradient id="paint1_linear_2103_307" x1="228.967" y1="17.4877" x2="402.342" y2="81.6545" gradientUnits="userSpaceOnUse">
<stop/>
<stop offset="1" stop-color="#222222"/>
</linearGradient>
<linearGradient id="paint2_linear_2103_307" x1="229.482" y1="43.9132" x2="370.775" y2="96.2064" gradientUnits="userSpaceOnUse">
<stop/>
<stop offset="1" stop-color="#1F1F1F"/>
</linearGradient>
<linearGradient id="paint3_linear_2103_307" x1="223.527" y1="238.296" x2="381.053" y2="179.995" gradientUnits="userSpaceOnUse">
<stop/>
<stop offset="1" stop-color="#2B2B2B"/>
</linearGradient>
<linearGradient id="paint4_linear_2103_307" x1="223.883" y1="252.059" x2="393.573" y2="189.255" gradientUnits="userSpaceOnUse">
<stop/>
<stop offset="1" stop-color="#222222"/>
</linearGradient>
<linearGradient id="paint5_linear_2103_307" x1="224.387" y1="226.195" x2="362.678" y2="175.013" gradientUnits="userSpaceOnUse">
<stop/>
<stop offset="1" stop-color="#1F1F1F"/>
</linearGradient>
<linearGradient id="paint6_linear_2103_307" x1="102.772" y1="171.172" x2="133.579" y2="171.172" gradientUnits="userSpaceOnUse">
<stop stop-color="#4C4C4C"/>
<stop offset="1" stop-color="#B2B2B2"/>
</linearGradient>
</defs>
</svg>
