<svg width="445" height="266" viewBox="0 0 445 266" fill="none" xmlns="http://www.w3.org/2000/svg">
<rect x="3.34961" y="10" width="197.65" height="247.9" rx="11" fill="#D9D9D9"/>
<rect x="3.34961" y="10" width="197.65" height="245.667" rx="11" fill="#EFF6EF"/>
<rect x="3.34961" y="10" width="197.65" height="118.367" rx="11" fill="white"/>
<path d="M3.34961 21C3.34961 14.9249 8.27448 10 14.3496 10H29.0329V35.6833H3.34961V21Z" fill="#FF5E5E"/>
<path d="M3.34961 21C3.34961 14.9249 8.27448 10 14.3496 10H29.0329V35.6833H3.34961V21Z" fill="#FF5E5E"/>
<path d="M3.34961 21C3.34961 14.9249 8.27448 10 14.3496 10H29.0329V35.6833H3.34961V21Z" fill="#FF5E5E"/>
<path d="M3.34961 21C3.34961 14.9249 8.27448 10 14.3496 10H29.0329V35.6833H3.34961V21Z" fill="#FF5E5E"/>
<path d="M3.34961 21C3.34961 14.9249 8.27448 10 14.3496 10H29.0329V35.6833H3.34961V21Z" fill="#6F6F6F"/>
<ellipse opacity="0.08" cx="107.2" cy="84.2583" rx="87.1" ry="32.9417" fill="url(#paint0_linear_2100_176)"/>
<path d="M18.9834 21C18.9834 14.9249 23.9083 10 29.9834 10H190C196.075 10 201 14.9249 201 21V35.6833H18.9834V21Z" fill="#FF5E5E"/>
<path d="M18.9834 21C18.9834 14.9249 23.9083 10 29.9834 10H190C196.075 10 201 14.9249 201 21V35.6833H18.9834V21Z" fill="#FF5E5E"/>
<path d="M18.9834 21C18.9834 14.9249 23.9083 10 29.9834 10H190C196.075 10 201 14.9249 201 21V35.6833H18.9834V21Z" fill="#FF5E5E"/>
<path d="M18.9834 21C18.9834 14.9249 23.9083 10 29.9834 10H190C196.075 10 201 14.9249 201 21V35.6833H18.9834V21Z" fill="#5EFF6E"/>
<path d="M18.9834 21C18.9834 14.9249 23.9083 10 29.9834 10H190C196.075 10 201 14.9249 201 21V35.6833H18.9834V21Z" fill="#2C392D"/>
<rect x="39.083" y="138.417" width="126.183" height="20.1" rx="9" fill="url(#paint1_linear_2100_176)"/>
<rect x="17.8662" y="227.75" width="39.0833" height="4.46667" rx="2.23333" fill="#D9D9D9"/>
<rect x="82.6328" y="227.75" width="39.0833" height="4.46667" rx="2.23333" fill="#D9D9D9"/>
<rect x="147.399" y="227.75" width="39.0833" height="4.46667" rx="2.23333" fill="#D9D9D9"/>
<rect x="17.8662" y="234.45" width="39.0833" height="4.46667" rx="2.23333" fill="#D9D9D9"/>
<rect x="82.6328" y="234.45" width="39.0833" height="4.46667" rx="2.23333" fill="#D9D9D9"/>
<rect x="147.399" y="234.45" width="39.0833" height="4.46667" rx="2.23333" fill="#D9D9D9"/>
<rect x="17.8662" y="241.15" width="39.0833" height="4.46667" rx="2.23333" fill="#D9D9D9"/>
<rect x="82.6328" y="241.15" width="39.0833" height="4.46667" rx="2.23333" fill="#D9D9D9"/>
<rect x="147.399" y="241.15" width="39.0833" height="4.46667" rx="2.23333" fill="#D9D9D9"/>
<rect x="17.8672" y="167.45" width="39.0833" height="53.6" rx="9" fill="url(#paint2_linear_2100_176)"/>
<rect x="20.1006" y="170.8" width="17.8667" height="17.8667" rx="8.93333" fill="white"/>
<rect x="81.5166" y="167.45" width="42.4333" height="53.6" rx="9" fill="url(#paint3_linear_2100_176)"/>
<rect x="144.05" y="167.45" width="42.4333" height="53.6" rx="9" fill="url(#paint4_linear_2100_176)"/>
<rect x="84.8662" y="170.8" width="17.8667" height="17.8667" rx="8.93333" fill="#45924C"/>
<rect x="84.8662" y="170.8" width="17.8667" height="17.8667" rx="8.93333" fill="#45924C"/>
<rect x="84.8662" y="170.8" width="17.8667" height="17.8667" rx="8.93333" fill="#45924C"/>
<rect x="84.8662" y="170.8" width="17.8667" height="17.8667" rx="8.93333" fill="white"/>
<rect x="147.399" y="170.8" width="17.8667" height="17.8667" rx="8.93333" fill="#45924C"/>
<rect x="147.399" y="170.8" width="17.8667" height="17.8667" rx="8.93333" fill="#45924C"/>
<rect x="147.399" y="170.8" width="17.8667" height="17.8667" rx="8.93333" fill="#45924C"/>
<rect x="147.399" y="170.8" width="17.8667" height="17.8667" rx="8.93333" fill="white"/>
<path d="M138.232 105.43C139.43 103.508 139.459 101.061 138.608 98.3634C137.756 95.6631 136.003 92.6441 133.528 89.4941C128.573 83.1908 120.65 76.2748 110.939 70.2208C101.228 64.1668 91.5304 60.098 83.6896 58.4246C79.7713 57.5884 76.2892 57.3443 73.4895 57.7681C70.6922 58.1915 68.5082 59.2948 67.3103 61.2163C66.1124 63.1378 66.0833 65.5845 66.9347 68.2825C67.7868 70.9828 69.539 74.0019 72.0148 77.1518C76.9693 83.4552 84.8921 90.3712 94.6032 96.4252C104.314 102.479 114.012 106.548 121.853 108.221C125.771 109.058 129.253 109.302 132.053 108.878C134.85 108.454 137.034 107.351 138.232 105.43Z" stroke="black"/>
<path d="M138.232 105.43C139.43 103.508 139.459 101.061 138.608 98.3634C137.756 95.6631 136.003 92.6441 133.528 89.4941C128.573 83.1908 120.65 76.2748 110.939 70.2208C101.228 64.1668 91.5304 60.098 83.6896 58.4246C79.7713 57.5884 76.2892 57.3443 73.4895 57.7681C70.6922 58.1915 68.5082 59.2948 67.3103 61.2163C66.1124 63.1378 66.0833 65.5845 66.9347 68.2825C67.7868 70.9828 69.539 74.0019 72.0148 77.1518C76.9693 83.4552 84.8921 90.3712 94.6032 96.4252C104.314 102.479 114.012 106.548 121.853 108.221C125.771 109.058 129.253 109.302 132.053 108.878C134.85 108.454 137.034 107.351 138.232 105.43Z" stroke="black"/>
<path d="M138.232 105.43C139.43 103.508 139.459 101.061 138.608 98.3634C137.756 95.6631 136.003 92.6441 133.528 89.4941C128.573 83.1908 120.65 76.2748 110.939 70.2208C101.228 64.1668 91.5304 60.098 83.6896 58.4246C79.7713 57.5884 76.2892 57.3443 73.4895 57.7681C70.6922 58.1915 68.5082 59.2948 67.3103 61.2163C66.1124 63.1378 66.0833 65.5845 66.9347 68.2825C67.7868 70.9828 69.539 74.0019 72.0148 77.1518C76.9693 83.4552 84.8921 90.3712 94.6032 96.4252C104.314 102.479 114.012 106.548 121.853 108.221C125.771 109.058 129.253 109.302 132.053 108.878C134.85 108.454 137.034 107.351 138.232 105.43Z" stroke="black"/>
<path d="M138.232 105.43C139.43 103.508 139.459 101.061 138.608 98.3634C137.756 95.6631 136.003 92.6441 133.528 89.4941C128.573 83.1908 120.65 76.2748 110.939 70.2208C101.228 64.1668 91.5304 60.098 83.6896 58.4246C79.7713 57.5884 76.2892 57.3443 73.4895 57.7681C70.6922 58.1915 68.5082 59.2948 67.3103 61.2163C66.1124 63.1378 66.0833 65.5845 66.9347 68.2825C67.7868 70.9828 69.539 74.0019 72.0148 77.1518C76.9693 83.4552 84.8921 90.3712 94.6032 96.4252C104.314 102.479 114.012 106.548 121.853 108.221C125.771 109.058 129.253 109.302 132.053 108.878C134.85 108.454 137.034 107.351 138.232 105.43Z" stroke="black"/>
<path d="M138.232 105.43C139.43 103.508 139.459 101.061 138.608 98.3634C137.756 95.6631 136.003 92.6441 133.528 89.4941C128.573 83.1908 120.65 76.2748 110.939 70.2208C101.228 64.1668 91.5304 60.098 83.6896 58.4246C79.7713 57.5884 76.2892 57.3443 73.4895 57.7681C70.6922 58.1915 68.5082 59.2948 67.3103 61.2163C66.1124 63.1378 66.0833 65.5845 66.9347 68.2825C67.7868 70.9828 69.539 74.0019 72.0148 77.1518C76.9693 83.4552 84.8921 90.3712 94.6032 96.4252C104.314 102.479 114.012 106.548 121.853 108.221C125.771 109.058 129.253 109.302 132.053 108.878C134.85 108.454 137.034 107.351 138.232 105.43Z" stroke="black"/>
<path d="M101.797 125.099C104.061 125.152 106.181 123.931 108.07 121.825C109.96 119.717 111.667 116.672 113.118 112.937C116.021 105.463 117.94 95.1233 118.206 83.6829C118.473 72.2424 117.038 61.824 114.487 54.2234C113.212 50.4252 111.649 47.3039 109.859 45.1099C108.07 42.9178 106.009 41.5997 103.745 41.5469C101.481 41.4941 99.3608 42.7147 97.472 44.8211C95.5816 46.9292 93.8751 49.9743 92.4244 53.709C89.5214 61.1824 87.6023 71.5225 87.3355 82.963C87.0687 94.4035 88.5038 104.822 91.0553 112.422C92.3303 116.221 93.893 119.342 95.6831 121.536C97.4716 123.728 99.5331 125.046 101.797 125.099Z" stroke="black"/>
<path d="M101.797 125.099C104.061 125.152 106.181 123.931 108.07 121.825C109.96 119.717 111.667 116.672 113.118 112.937C116.021 105.463 117.94 95.1233 118.206 83.6829C118.473 72.2424 117.038 61.824 114.487 54.2234C113.212 50.4252 111.649 47.3039 109.859 45.1099C108.07 42.9178 106.009 41.5997 103.745 41.5469C101.481 41.4941 99.3608 42.7147 97.472 44.8211C95.5816 46.9292 93.8751 49.9743 92.4244 53.709C89.5214 61.1824 87.6023 71.5225 87.3355 82.963C87.0687 94.4035 88.5038 104.822 91.0553 112.422C92.3303 116.221 93.893 119.342 95.6831 121.536C97.4716 123.728 99.5331 125.046 101.797 125.099Z" stroke="black"/>
<path d="M101.797 125.099C104.061 125.152 106.181 123.931 108.07 121.825C109.96 119.717 111.667 116.672 113.118 112.937C116.021 105.463 117.94 95.1233 118.206 83.6829C118.473 72.2424 117.038 61.824 114.487 54.2234C113.212 50.4252 111.649 47.3039 109.859 45.1099C108.07 42.9178 106.009 41.5997 103.745 41.5469C101.481 41.4941 99.3608 42.7147 97.472 44.8211C95.5816 46.9292 93.8751 49.9743 92.4244 53.709C89.5214 61.1824 87.6023 71.5225 87.3355 82.963C87.0687 94.4035 88.5038 104.822 91.0553 112.422C92.3303 116.221 93.893 119.342 95.6831 121.536C97.4716 123.728 99.5331 125.046 101.797 125.099Z" stroke="black"/>
<path d="M101.797 125.099C104.061 125.152 106.181 123.931 108.07 121.825C109.96 119.717 111.667 116.672 113.118 112.937C116.021 105.463 117.94 95.1233 118.206 83.6829C118.473 72.2424 117.038 61.824 114.487 54.2234C113.212 50.4252 111.649 47.3039 109.859 45.1099C108.07 42.9178 106.009 41.5997 103.745 41.5469C101.481 41.4941 99.3608 42.7147 97.472 44.8211C95.5816 46.9292 93.8751 49.9743 92.4244 53.709C89.5214 61.1824 87.6023 71.5225 87.3355 82.963C87.0687 94.4035 88.5038 104.822 91.0553 112.422C92.3303 116.221 93.893 119.342 95.6831 121.536C97.4716 123.728 99.5331 125.046 101.797 125.099Z" stroke="black"/>
<path d="M101.797 125.099C104.061 125.152 106.181 123.931 108.07 121.825C109.96 119.717 111.667 116.672 113.118 112.937C116.021 105.463 117.94 95.1233 118.206 83.6829C118.473 72.2424 117.038 61.824 114.487 54.2234C113.212 50.4252 111.649 47.3039 109.859 45.1099C108.07 42.9178 106.009 41.5997 103.745 41.5469C101.481 41.4941 99.3608 42.7147 97.472 44.8211C95.5816 46.9292 93.8751 49.9743 92.4244 53.709C89.5214 61.1824 87.6023 71.5225 87.3355 82.963C87.0687 94.4035 88.5038 104.822 91.0553 112.422C92.3303 116.221 93.893 119.342 95.6831 121.536C97.4716 123.728 99.5331 125.046 101.797 125.099Z" stroke="black"/>
<path d="M66.1749 103.495C67.268 105.478 69.3897 106.697 72.1602 107.27C74.9331 107.843 78.4233 107.786 82.3808 107.161C90.3002 105.911 100.202 102.369 110.224 96.8447C120.246 91.3206 128.529 84.8397 133.814 78.8114C136.456 75.7988 138.367 72.8782 139.363 70.2275C140.358 67.579 140.46 65.1343 139.367 63.1513C138.274 61.1682 136.153 59.9493 133.382 59.3764C130.609 58.803 127.119 58.8598 123.162 59.4846C115.242 60.7348 105.34 64.2773 95.3181 69.8014C85.2961 75.3255 77.0136 81.8063 71.7279 87.8347C69.0866 90.8472 67.1749 93.7679 66.1791 96.4186C65.1842 99.067 65.0819 101.512 66.1749 103.495Z" stroke="black"/>
<path d="M66.1749 103.495C67.268 105.478 69.3897 106.697 72.1602 107.27C74.9331 107.843 78.4233 107.786 82.3808 107.161C90.3002 105.911 100.202 102.369 110.224 96.8447C120.246 91.3206 128.529 84.8397 133.814 78.8114C136.456 75.7988 138.367 72.8782 139.363 70.2275C140.358 67.579 140.46 65.1343 139.367 63.1513C138.274 61.1682 136.153 59.9493 133.382 59.3764C130.609 58.803 127.119 58.8598 123.162 59.4846C115.242 60.7348 105.34 64.2773 95.3181 69.8014C85.2961 75.3255 77.0136 81.8063 71.7279 87.8347C69.0866 90.8472 67.1749 93.7679 66.1791 96.4186C65.1842 99.067 65.0819 101.512 66.1749 103.495Z" stroke="black"/>
<path d="M66.1749 103.495C67.268 105.478 69.3897 106.697 72.1602 107.27C74.9331 107.843 78.4233 107.786 82.3808 107.161C90.3002 105.911 100.202 102.369 110.224 96.8447C120.246 91.3206 128.529 84.8397 133.814 78.8114C136.456 75.7988 138.367 72.8782 139.363 70.2275C140.358 67.579 140.46 65.1343 139.367 63.1513C138.274 61.1682 136.153 59.9493 133.382 59.3764C130.609 58.803 127.119 58.8598 123.162 59.4846C115.242 60.7348 105.34 64.2773 95.3181 69.8014C85.2961 75.3255 77.0136 81.8063 71.7279 87.8347C69.0866 90.8472 67.1749 93.7679 66.1791 96.4186C65.1842 99.067 65.0819 101.512 66.1749 103.495Z" stroke="black"/>
<path d="M66.1749 103.495C67.268 105.478 69.3897 106.697 72.1602 107.27C74.9331 107.843 78.4233 107.786 82.3808 107.161C90.3002 105.911 100.202 102.369 110.224 96.8447C120.246 91.3206 128.529 84.8397 133.814 78.8114C136.456 75.7988 138.367 72.8782 139.363 70.2275C140.358 67.579 140.46 65.1343 139.367 63.1513C138.274 61.1682 136.153 59.9493 133.382 59.3764C130.609 58.803 127.119 58.8598 123.162 59.4846C115.242 60.7348 105.34 64.2773 95.3181 69.8014C85.2961 75.3255 77.0136 81.8063 71.7279 87.8347C69.0866 90.8472 67.1749 93.7679 66.1791 96.4186C65.1842 99.067 65.0819 101.512 66.1749 103.495Z" stroke="black"/>
<path d="M66.1749 103.495C67.268 105.478 69.3897 106.697 72.1602 107.27C74.9331 107.843 78.4233 107.786 82.3808 107.161C90.3002 105.911 100.202 102.369 110.224 96.8447C120.246 91.3206 128.529 84.8397 133.814 78.8114C136.456 75.7988 138.367 72.8782 139.363 70.2275C140.358 67.579 140.46 65.1343 139.367 63.1513C138.274 61.1682 136.153 59.9493 133.382 59.3764C130.609 58.803 127.119 58.8598 123.162 59.4846C115.242 60.7348 105.34 64.2773 95.3181 69.8014C85.2961 75.3255 77.0136 81.8063 71.7279 87.8347C69.0866 90.8472 67.1749 93.7679 66.1791 96.4186C65.1842 99.067 65.0819 101.512 66.1749 103.495Z" stroke="black"/>
<circle cx="102.894" cy="83.2083" r="8.16248" transform="rotate(-28.1984 102.894 83.2083)" fill="#00E0FF"/>
<path d="M55.3826 77.9512C56.1331 76.7473 56.1379 75.2347 55.6257 73.6116C55.1128 71.9862 54.0633 70.1828 52.5939 68.3133C49.6523 64.5709 44.9577 60.4752 39.213 56.8939C33.4682 53.3125 27.724 50.9006 23.0687 49.907C20.7432 49.4107 18.6619 49.2624 16.9767 49.5175C15.2939 49.7722 13.9379 50.4424 13.1874 51.6463C12.4369 52.8502 12.4321 54.3627 12.9443 55.9858C13.4571 57.6112 14.5067 59.4147 15.9761 61.2841C18.9177 65.0265 23.6123 69.1223 29.357 72.7036C35.1018 76.2849 40.846 78.6969 45.5013 79.6904C47.8268 80.1867 49.9081 80.3351 51.5933 80.08C53.2761 79.8253 54.6321 79.1551 55.3826 77.9512Z" stroke="black"/>
<path d="M55.3826 77.9512C56.1331 76.7473 56.1379 75.2347 55.6257 73.6116C55.1128 71.9862 54.0633 70.1828 52.5939 68.3133C49.6523 64.5709 44.9577 60.4752 39.213 56.8939C33.4682 53.3125 27.724 50.9006 23.0687 49.907C20.7432 49.4107 18.6619 49.2624 16.9767 49.5175C15.2939 49.7722 13.9379 50.4424 13.1874 51.6463C12.4369 52.8502 12.4321 54.3627 12.9443 55.9858C13.4571 57.6112 14.5067 59.4147 15.9761 61.2841C18.9177 65.0265 23.6123 69.1223 29.357 72.7036C35.1018 76.2849 40.846 78.6969 45.5013 79.6904C47.8268 80.1867 49.9081 80.3351 51.5933 80.08C53.2761 79.8253 54.6321 79.1551 55.3826 77.9512Z" stroke="black"/>
<path d="M55.3826 77.9512C56.1331 76.7473 56.1379 75.2347 55.6257 73.6116C55.1128 71.9862 54.0633 70.1828 52.5939 68.3133C49.6523 64.5709 44.9577 60.4752 39.213 56.8939C33.4682 53.3125 27.724 50.9006 23.0687 49.907C20.7432 49.4107 18.6619 49.2624 16.9767 49.5175C15.2939 49.7722 13.9379 50.4424 13.1874 51.6463C12.4369 52.8502 12.4321 54.3627 12.9443 55.9858C13.4571 57.6112 14.5067 59.4147 15.9761 61.2841C18.9177 65.0265 23.6123 69.1223 29.357 72.7036C35.1018 76.2849 40.846 78.6969 45.5013 79.6904C47.8268 80.1867 49.9081 80.3351 51.5933 80.08C53.2761 79.8253 54.6321 79.1551 55.3826 77.9512Z" stroke="black"/>
<path d="M55.3826 77.9512C56.1331 76.7473 56.1379 75.2347 55.6257 73.6116C55.1128 71.9862 54.0633 70.1828 52.5939 68.3133C49.6523 64.5709 44.9577 60.4752 39.213 56.8939C33.4682 53.3125 27.724 50.9006 23.0687 49.907C20.7432 49.4107 18.6619 49.2624 16.9767 49.5175C15.2939 49.7722 13.9379 50.4424 13.1874 51.6463C12.4369 52.8502 12.4321 54.3627 12.9443 55.9858C13.4571 57.6112 14.5067 59.4147 15.9761 61.2841C18.9177 65.0265 23.6123 69.1223 29.357 72.7036C35.1018 76.2849 40.846 78.6969 45.5013 79.6904C47.8268 80.1867 49.9081 80.3351 51.5933 80.08C53.2761 79.8253 54.6321 79.1551 55.3826 77.9512Z" stroke="black"/>
<path d="M55.3826 77.9512C56.1331 76.7473 56.1379 75.2347 55.6257 73.6116C55.1128 71.9862 54.0633 70.1828 52.5939 68.3133C49.6523 64.5709 44.9577 60.4752 39.213 56.8939C33.4682 53.3125 27.724 50.9006 23.0687 49.907C20.7432 49.4107 18.6619 49.2624 16.9767 49.5175C15.2939 49.7722 13.9379 50.4424 13.1874 51.6463C12.4369 52.8502 12.4321 54.3627 12.9443 55.9858C13.4571 57.6112 14.5067 59.4147 15.9761 61.2841C18.9177 65.0265 23.6123 69.1223 29.357 72.7036C35.1018 76.2849 40.846 78.6969 45.5013 79.6904C47.8268 80.1867 49.9081 80.3351 51.5933 80.08C53.2761 79.8253 54.6321 79.1551 55.3826 77.9512Z" stroke="black"/>
<path d="M33.7053 89.6537C35.1236 89.6868 36.4278 88.9209 37.5641 87.6537C38.702 86.3847 39.7199 84.5633 40.5809 82.3468C42.3044 77.9097 43.4396 71.7839 43.5974 65.0161C43.7553 58.2483 42.9069 52.0762 41.392 47.5636C40.6353 45.3094 39.7034 43.4425 38.6259 42.1219C37.5499 40.8031 36.2827 39.9772 34.8644 39.9442C33.4461 39.9111 32.1419 40.677 31.0056 41.9442C29.8677 43.2131 28.8498 45.0346 27.9888 47.2511C26.2653 51.6882 25.1301 57.814 24.9722 64.5818C24.8144 71.3496 25.6628 77.5216 27.1777 82.0342C27.9344 84.2885 28.8663 86.1554 29.9438 87.476C31.0198 88.7947 32.287 89.6206 33.7053 89.6537Z" stroke="black"/>
<path d="M33.7053 89.6537C35.1236 89.6868 36.4278 88.9209 37.5641 87.6537C38.702 86.3847 39.7199 84.5633 40.5809 82.3468C42.3044 77.9097 43.4396 71.7839 43.5974 65.0161C43.7553 58.2483 42.9069 52.0762 41.392 47.5636C40.6353 45.3094 39.7034 43.4425 38.6259 42.1219C37.5499 40.8031 36.2827 39.9772 34.8644 39.9442C33.4461 39.9111 32.1419 40.677 31.0056 41.9442C29.8677 43.2131 28.8498 45.0346 27.9888 47.2511C26.2653 51.6882 25.1301 57.814 24.9722 64.5818C24.8144 71.3496 25.6628 77.5216 27.1777 82.0342C27.9344 84.2885 28.8663 86.1554 29.9438 87.476C31.0198 88.7947 32.287 89.6206 33.7053 89.6537Z" stroke="black"/>
<path d="M33.7053 89.6537C35.1236 89.6868 36.4278 88.9209 37.5641 87.6537C38.702 86.3847 39.7199 84.5633 40.5809 82.3468C42.3044 77.9097 43.4396 71.7839 43.5974 65.0161C43.7553 58.2483 42.9069 52.0762 41.392 47.5636C40.6353 45.3094 39.7034 43.4425 38.6259 42.1219C37.5499 40.8031 36.2827 39.9772 34.8644 39.9442C33.4461 39.9111 32.1419 40.677 31.0056 41.9442C29.8677 43.2131 28.8498 45.0346 27.9888 47.2511C26.2653 51.6882 25.1301 57.814 24.9722 64.5818C24.8144 71.3496 25.6628 77.5216 27.1777 82.0342C27.9344 84.2885 28.8663 86.1554 29.9438 87.476C31.0198 88.7947 32.287 89.6206 33.7053 89.6537Z" stroke="black"/>
<path d="M33.7053 89.6537C35.1236 89.6868 36.4278 88.9209 37.5641 87.6537C38.702 86.3847 39.7199 84.5633 40.5809 82.3468C42.3044 77.9097 43.4396 71.7839 43.5974 65.0161C43.7553 58.2483 42.9069 52.0762 41.392 47.5636C40.6353 45.3094 39.7034 43.4425 38.6259 42.1219C37.5499 40.8031 36.2827 39.9772 34.8644 39.9442C33.4461 39.9111 32.1419 40.677 31.0056 41.9442C29.8677 43.2131 28.8498 45.0346 27.9888 47.2511C26.2653 51.6882 25.1301 57.814 24.9722 64.5818C24.8144 71.3496 25.6628 77.5216 27.1777 82.0342C27.9344 84.2885 28.8663 86.1554 29.9438 87.476C31.0198 88.7947 32.287 89.6206 33.7053 89.6537Z" stroke="black"/>
<path d="M33.7053 89.6537C35.1236 89.6868 36.4278 88.9209 37.5641 87.6537C38.702 86.3847 39.7199 84.5633 40.5809 82.3468C42.3044 77.9097 43.4396 71.7839 43.5974 65.0161C43.7553 58.2483 42.9069 52.0762 41.392 47.5636C40.6353 45.3094 39.7034 43.4425 38.6259 42.1219C37.5499 40.8031 36.2827 39.9772 34.8644 39.9442C33.4461 39.9111 32.1419 40.677 31.0056 41.9442C29.8677 43.2131 28.8498 45.0346 27.9888 47.2511C26.2653 51.6882 25.1301 57.814 24.9722 64.5818C24.8144 71.3496 25.6628 77.5216 27.1777 82.0342C27.9344 84.2885 28.8663 86.1554 29.9438 87.476C31.0198 88.7947 32.287 89.6206 33.7053 89.6537Z" stroke="black"/>
<path d="M12.5123 76.8C13.1972 78.0425 14.5152 78.7845 16.1819 79.1292C17.851 79.4743 19.9373 79.4379 22.286 79.0671C26.9879 78.3248 32.8533 76.2246 38.782 72.9567C44.7107 69.6889 49.6183 65.851 52.7565 62.2718C54.3241 60.4839 55.4689 58.7394 56.0683 57.1439C56.6668 55.5506 56.7432 54.04 56.0584 52.7975C55.3736 51.5551 54.0555 50.8131 52.3888 50.4684C50.7197 50.1233 48.6334 50.1597 46.2847 50.5305C41.5828 51.2728 35.7174 53.373 29.7887 56.6409C23.8601 59.9087 18.9524 63.7466 15.8142 67.3258C14.2466 69.1137 13.1018 70.8582 12.5024 72.4537C11.9039 74.047 11.8275 75.5576 12.5123 76.8Z" stroke="black"/>
<path d="M12.5123 76.8C13.1972 78.0425 14.5152 78.7845 16.1819 79.1292C17.851 79.4743 19.9373 79.4379 22.286 79.0671C26.9879 78.3248 32.8533 76.2246 38.782 72.9567C44.7107 69.6889 49.6183 65.851 52.7565 62.2718C54.3241 60.4839 55.4689 58.7394 56.0683 57.1439C56.6668 55.5506 56.7432 54.04 56.0584 52.7975C55.3736 51.5551 54.0555 50.8131 52.3888 50.4684C50.7197 50.1233 48.6334 50.1597 46.2847 50.5305C41.5828 51.2728 35.7174 53.373 29.7887 56.6409C23.8601 59.9087 18.9524 63.7466 15.8142 67.3258C14.2466 69.1137 13.1018 70.8582 12.5024 72.4537C11.9039 74.047 11.8275 75.5576 12.5123 76.8Z" stroke="black"/>
<path d="M12.5123 76.8C13.1972 78.0425 14.5152 78.7845 16.1819 79.1292C17.851 79.4743 19.9373 79.4379 22.286 79.0671C26.9879 78.3248 32.8533 76.2246 38.782 72.9567C44.7107 69.6889 49.6183 65.851 52.7565 62.2718C54.3241 60.4839 55.4689 58.7394 56.0683 57.1439C56.6668 55.5506 56.7432 54.04 56.0584 52.7975C55.3736 51.5551 54.0555 50.8131 52.3888 50.4684C50.7197 50.1233 48.6334 50.1597 46.2847 50.5305C41.5828 51.2728 35.7174 53.373 29.7887 56.6409C23.8601 59.9087 18.9524 63.7466 15.8142 67.3258C14.2466 69.1137 13.1018 70.8582 12.5024 72.4537C11.9039 74.047 11.8275 75.5576 12.5123 76.8Z" stroke="black"/>
<path d="M12.5123 76.8C13.1972 78.0425 14.5152 78.7845 16.1819 79.1292C17.851 79.4743 19.9373 79.4379 22.286 79.0671C26.9879 78.3248 32.8533 76.2246 38.782 72.9567C44.7107 69.6889 49.6183 65.851 52.7565 62.2718C54.3241 60.4839 55.4689 58.7394 56.0683 57.1439C56.6668 55.5506 56.7432 54.04 56.0584 52.7975C55.3736 51.5551 54.0555 50.8131 52.3888 50.4684C50.7197 50.1233 48.6334 50.1597 46.2847 50.5305C41.5828 51.2728 35.7174 53.373 29.7887 56.6409C23.8601 59.9087 18.9524 63.7466 15.8142 67.3258C14.2466 69.1137 13.1018 70.8582 12.5024 72.4537C11.9039 74.047 11.8275 75.5576 12.5123 76.8Z" stroke="black"/>
<path d="M12.5123 76.8C13.1972 78.0425 14.5152 78.7845 16.1819 79.1292C17.851 79.4743 19.9373 79.4379 22.286 79.0671C26.9879 78.3248 32.8533 76.2246 38.782 72.9567C44.7107 69.6889 49.6183 65.851 52.7565 62.2718C54.3241 60.4839 55.4689 58.7394 56.0683 57.1439C56.6668 55.5506 56.7432 54.04 56.0584 52.7975C55.3736 51.5551 54.0555 50.8131 52.3888 50.4684C50.7197 50.1233 48.6334 50.1597 46.2847 50.5305C41.5828 51.2728 35.7174 53.373 29.7887 56.6409C23.8601 59.9087 18.9524 63.7466 15.8142 67.3258C14.2466 69.1137 13.1018 70.8582 12.5024 72.4537C11.9039 74.047 11.8275 75.5576 12.5123 76.8Z" stroke="black"/>
<circle cx="34.3564" cy="64.7308" r="4.81625" transform="rotate(-28.1984 34.3564 64.7308)" fill="#00E0FF"/>
<path d="M190.528 84.5555C189.714 83.3934 188.324 82.7966 186.63 82.6322C184.934 82.4675 182.864 82.7269 180.568 83.3467C175.972 84.5876 170.365 87.303 164.82 91.1862C159.275 95.0693 154.806 99.41 152.068 103.304C150.701 105.25 149.749 107.107 149.324 108.757C148.899 110.405 148.985 111.915 149.799 113.077C150.612 114.239 152.002 114.836 153.696 115.001C155.393 115.165 157.463 114.906 159.759 114.286C164.354 113.045 169.961 110.33 175.507 106.447C181.052 102.564 185.521 98.2228 188.258 94.3286C189.626 92.3833 190.577 90.5263 191.003 88.8759C191.427 87.2277 191.342 85.7176 190.528 84.5555Z" stroke="black"/>
<path d="M190.528 84.5555C189.714 83.3934 188.324 82.7966 186.63 82.6322C184.934 82.4675 182.864 82.7269 180.568 83.3467C175.972 84.5876 170.365 87.303 164.82 91.1862C159.275 95.0693 154.806 99.41 152.068 103.304C150.701 105.25 149.749 107.107 149.324 108.757C148.899 110.405 148.985 111.915 149.799 113.077C150.612 114.239 152.002 114.836 153.696 115.001C155.393 115.165 157.463 114.906 159.759 114.286C164.354 113.045 169.961 110.33 175.507 106.447C181.052 102.564 185.521 98.2228 188.258 94.3286C189.626 92.3833 190.577 90.5263 191.003 88.8759C191.427 87.2277 191.342 85.7176 190.528 84.5555Z" stroke="black"/>
<path d="M190.528 84.5555C189.714 83.3934 188.324 82.7966 186.63 82.6322C184.934 82.4675 182.864 82.7269 180.568 83.3467C175.972 84.5876 170.365 87.303 164.82 91.1862C159.275 95.0693 154.806 99.41 152.068 103.304C150.701 105.25 149.749 107.107 149.324 108.757C148.899 110.405 148.985 111.915 149.799 113.077C150.612 114.239 152.002 114.836 153.696 115.001C155.393 115.165 157.463 114.906 159.759 114.286C164.354 113.045 169.961 110.33 175.507 106.447C181.052 102.564 185.521 98.2228 188.258 94.3286C189.626 92.3833 190.577 90.5263 191.003 88.8759C191.427 87.2277 191.342 85.7176 190.528 84.5555Z" stroke="black"/>
<path d="M190.528 84.5555C189.714 83.3934 188.324 82.7966 186.63 82.6322C184.934 82.4675 182.864 82.7269 180.568 83.3467C175.972 84.5876 170.365 87.303 164.82 91.1862C159.275 95.0693 154.806 99.41 152.068 103.304C150.701 105.25 149.749 107.107 149.324 108.757C148.899 110.405 148.985 111.915 149.799 113.077C150.612 114.239 152.002 114.836 153.696 115.001C155.393 115.165 157.463 114.906 159.759 114.286C164.354 113.045 169.961 110.33 175.507 106.447C181.052 102.564 185.521 98.2228 188.258 94.3286C189.626 92.3833 190.577 90.5263 191.003 88.8759C191.427 87.2277 191.342 85.7176 190.528 84.5555Z" stroke="black"/>
<path d="M190.528 84.5555C189.714 83.3934 188.324 82.7966 186.63 82.6322C184.934 82.4675 182.864 82.7269 180.568 83.3467C175.972 84.5876 170.365 87.303 164.82 91.1862C159.275 95.0693 154.806 99.41 152.068 103.304C150.701 105.25 149.749 107.107 149.324 108.757C148.899 110.405 148.985 111.915 149.799 113.077C150.612 114.239 152.002 114.836 153.696 115.001C155.393 115.165 157.463 114.906 159.759 114.286C164.354 113.045 169.961 110.33 175.507 106.447C181.052 102.564 185.521 98.2228 188.258 94.3286C189.626 92.3833 190.577 90.5263 191.003 88.8759C191.427 87.2277 191.342 85.7176 190.528 84.5555Z" stroke="black"/>
<path d="M192.805 109.084C193.39 107.792 193.197 106.292 192.476 104.75C191.754 103.206 190.476 101.557 188.774 99.8962C185.367 96.5725 180.175 93.1288 174.01 90.333C167.844 87.5371 161.833 85.9004 157.088 85.5269C154.717 85.3403 152.634 85.4665 150.997 85.9407C149.362 86.4142 148.106 87.2567 147.52 88.5487C146.934 89.8408 147.128 91.3408 147.849 92.8826C148.571 94.4266 149.848 96.0766 151.551 97.7369C154.958 101.061 160.15 104.504 166.315 107.3C172.481 110.096 178.492 111.733 183.237 112.106C185.608 112.293 187.691 112.167 189.328 111.692C190.962 111.219 192.219 110.376 192.805 109.084Z" stroke="black"/>
<path d="M192.805 109.084C193.39 107.792 193.197 106.292 192.476 104.75C191.754 103.206 190.476 101.557 188.774 99.8962C185.367 96.5725 180.175 93.1288 174.01 90.333C167.844 87.5371 161.833 85.9004 157.088 85.5269C154.717 85.3403 152.634 85.4665 150.997 85.9407C149.362 86.4142 148.106 87.2567 147.52 88.5487C146.934 89.8408 147.128 91.3408 147.849 92.8826C148.571 94.4266 149.848 96.0766 151.551 97.7369C154.958 101.061 160.15 104.504 166.315 107.3C172.481 110.096 178.492 111.733 183.237 112.106C185.608 112.293 187.691 112.167 189.328 111.692C190.962 111.219 192.219 110.376 192.805 109.084Z" stroke="black"/>
<path d="M192.805 109.084C193.39 107.792 193.197 106.292 192.476 104.75C191.754 103.206 190.476 101.557 188.774 99.8962C185.367 96.5725 180.175 93.1288 174.01 90.333C167.844 87.5371 161.833 85.9004 157.088 85.5269C154.717 85.3403 152.634 85.4665 150.997 85.9407C149.362 86.4142 148.106 87.2567 147.52 88.5487C146.934 89.8408 147.128 91.3408 147.849 92.8826C148.571 94.4266 149.848 96.0766 151.551 97.7369C154.958 101.061 160.15 104.504 166.315 107.3C172.481 110.096 178.492 111.733 183.237 112.106C185.608 112.293 187.691 112.167 189.328 111.692C190.962 111.219 192.219 110.376 192.805 109.084Z" stroke="black"/>
<path d="M192.805 109.084C193.39 107.792 193.197 106.292 192.476 104.75C191.754 103.206 190.476 101.557 188.774 99.8962C185.367 96.5725 180.175 93.1288 174.01 90.333C167.844 87.5371 161.833 85.9004 157.088 85.5269C154.717 85.3403 152.634 85.4665 150.997 85.9407C149.362 86.4142 148.106 87.2567 147.52 88.5487C146.934 89.8408 147.128 91.3408 147.849 92.8826C148.571 94.4266 149.848 96.0766 151.551 97.7369C154.958 101.061 160.15 104.504 166.315 107.3C172.481 110.096 178.492 111.733 183.237 112.106C185.608 112.293 187.691 112.167 189.328 111.692C190.962 111.219 192.219 110.376 192.805 109.084Z" stroke="black"/>
<path d="M192.805 109.084C193.39 107.792 193.197 106.292 192.476 104.75C191.754 103.206 190.476 101.557 188.774 99.8962C185.367 96.5725 180.175 93.1288 174.01 90.333C167.844 87.5371 161.833 85.9004 157.088 85.5269C154.717 85.3403 152.634 85.4665 150.997 85.9407C149.362 86.4142 148.106 87.2567 147.52 88.5487C146.934 89.8408 147.128 91.3408 147.849 92.8826C148.571 94.4266 149.848 96.0766 151.551 97.7369C154.958 101.061 160.15 104.504 166.315 107.3C172.481 110.096 178.492 111.733 183.237 112.106C185.608 112.293 187.691 112.167 189.328 111.692C190.962 111.219 192.219 110.376 192.805 109.084Z" stroke="black"/>
<path d="M172.679 123.55C174.09 123.407 175.289 122.485 176.259 121.086C177.23 119.686 178.014 117.752 178.593 115.445C179.751 110.829 180.116 104.609 179.431 97.8742C178.747 91.1393 177.137 85.1206 175.073 80.8313C174.042 78.6887 172.885 76.9521 171.652 75.7757C170.42 74.6009 169.06 73.939 167.649 74.0825C166.238 74.226 165.039 75.1481 164.069 76.5467C163.097 77.9473 162.314 79.8812 161.735 82.1875C160.577 86.8045 160.212 93.0239 160.897 99.7588C161.581 106.494 163.191 112.512 165.255 116.802C166.286 118.944 167.443 120.681 168.676 121.857C169.908 123.032 171.268 123.694 172.679 123.55Z" stroke="black"/>
<path d="M172.679 123.55C174.09 123.407 175.289 122.485 176.259 121.086C177.23 119.686 178.014 117.752 178.593 115.445C179.751 110.829 180.116 104.609 179.431 97.8742C178.747 91.1393 177.137 85.1206 175.073 80.8313C174.042 78.6887 172.885 76.9521 171.652 75.7757C170.42 74.6009 169.06 73.939 167.649 74.0825C166.238 74.226 165.039 75.1481 164.069 76.5467C163.097 77.9473 162.314 79.8812 161.735 82.1875C160.577 86.8045 160.212 93.0239 160.897 99.7588C161.581 106.494 163.191 112.512 165.255 116.802C166.286 118.944 167.443 120.681 168.676 121.857C169.908 123.032 171.268 123.694 172.679 123.55Z" stroke="black"/>
<path d="M172.679 123.55C174.09 123.407 175.289 122.485 176.259 121.086C177.23 119.686 178.014 117.752 178.593 115.445C179.751 110.829 180.116 104.609 179.431 97.8742C178.747 91.1393 177.137 85.1206 175.073 80.8313C174.042 78.6887 172.885 76.9521 171.652 75.7757C170.42 74.6009 169.06 73.939 167.649 74.0825C166.238 74.226 165.039 75.1481 164.069 76.5467C163.097 77.9473 162.314 79.8812 161.735 82.1875C160.577 86.8045 160.212 93.0239 160.897 99.7588C161.581 106.494 163.191 112.512 165.255 116.802C166.286 118.944 167.443 120.681 168.676 121.857C169.908 123.032 171.268 123.694 172.679 123.55Z" stroke="black"/>
<path d="M172.679 123.55C174.09 123.407 175.289 122.485 176.259 121.086C177.23 119.686 178.014 117.752 178.593 115.445C179.751 110.829 180.116 104.609 179.431 97.8742C178.747 91.1393 177.137 85.1206 175.073 80.8313C174.042 78.6887 172.885 76.9521 171.652 75.7757C170.42 74.6009 169.06 73.939 167.649 74.0825C166.238 74.226 165.039 75.1481 164.069 76.5467C163.097 77.9473 162.314 79.8812 161.735 82.1875C160.577 86.8045 160.212 93.0239 160.897 99.7588C161.581 106.494 163.191 112.512 165.255 116.802C166.286 118.944 167.443 120.681 168.676 121.857C169.908 123.032 171.268 123.694 172.679 123.55Z" stroke="black"/>
<path d="M172.679 123.55C174.09 123.407 175.289 122.485 176.259 121.086C177.23 119.686 178.014 117.752 178.593 115.445C179.751 110.829 180.116 104.609 179.431 97.8742C178.747 91.1393 177.137 85.1206 175.073 80.8313C174.042 78.6887 172.885 76.9521 171.652 75.7757C170.42 74.6009 169.06 73.939 167.649 74.0825C166.238 74.226 165.039 75.1481 164.069 76.5467C163.097 77.9473 162.314 79.8812 161.735 82.1875C160.577 86.8045 160.212 93.0239 160.897 99.7588C161.581 106.494 163.191 112.512 165.255 116.802C166.286 118.944 167.443 120.681 168.676 121.857C169.908 123.032 171.268 123.694 172.679 123.55Z" stroke="black"/>
<circle cx="170.13" cy="98.7235" r="4.81625" transform="rotate(-95.1409 170.13 98.7235)" fill="#00E0FF"/>
<rect x="312" y="210" width="78" height="16" rx="8" fill="#2F3883"/>
<rect x="343" y="196" width="16" height="26" rx="8" fill="#2F3883"/>
<rect x="251" y="79" width="188" height="116" rx="22" fill="#2F3883"/>
<rect x="257" y="76" width="188" height="116" rx="22" fill="#00A1C4"/>
<path d="M275.841 124.727V122L297.795 110.818V115.182L280.955 123.295L281.091 123.023V123.705L280.955 123.432L297.795 131.545V135.909L275.841 124.727ZM318.663 100.455L307.413 142.25H303.732L314.982 100.455H318.663ZM346.545 124.727L324.591 135.909V131.545L341.432 123.432L341.295 123.705V123.023L341.432 123.295L324.591 115.182V110.818L346.545 122V124.727Z" fill="white"/>
<rect x="282" y="150" width="28" height="9" rx="4.5" fill="white"/>
<rect x="275" y="84" width="28" height="9" rx="4.5" fill="white"/>
<rect x="309" y="84" width="14" height="9" rx="4.5" fill="white"/>
<rect x="323" y="150" width="116" height="9" rx="4.5" fill="white"/>
<rect x="305" y="168" width="109" height="9" rx="4.5" fill="white"/>
<rect x="361" y="73" width="10" height="37" fill="white"/>
<rect x="420" y="73" width="10" height="37" fill="white"/>
<rect x="280" y="168" width="18" height="9" rx="4.5" fill="white"/>
<rect x="421" y="168" width="18" height="9" rx="4.5" fill="white"/>
<path d="M395.5 131C404.256 131 412.274 128.677 418.163 124.815C424.036 120.964 428 115.415 428 109C428 102.585 424.036 97.0361 418.163 93.1854C412.274 89.3234 404.256 87 395.5 87C386.744 87 378.726 89.3234 372.837 93.1854C366.964 97.0361 363 102.585 363 109C363 115.415 366.964 120.964 372.837 124.815C378.726 128.677 386.744 131 395.5 131Z" fill="#2F3883" stroke="white" stroke-width="4"/>
<path d="M395.5 114C404.089 114 411.911 111.719 417.615 107.978C423.311 104.243 427 98.969 427 93C427 87.031 423.311 81.7566 417.615 78.0216C411.911 74.281 404.089 72 395.5 72C386.911 72 379.089 74.281 373.385 78.0216C367.689 81.7566 364 87.031 364 93C364 98.969 367.689 104.243 373.385 107.978C379.089 111.719 386.911 114 395.5 114Z" fill="#2F3883" stroke="white" stroke-width="2"/>
<path d="M395.5 98C404.256 98 412.274 95.6766 418.163 91.8146C424.036 87.9639 428 82.4152 428 76C428 69.5848 424.036 64.0361 418.163 60.1854C412.274 56.3234 404.256 54 395.5 54C386.744 54 378.726 56.3234 372.837 60.1854C366.964 64.0361 363 69.5848 363 76C363 82.4152 366.964 87.9639 372.837 91.8146C378.726 95.6766 386.744 98 395.5 98Z" fill="#00A1C4" stroke="white" stroke-width="4"/>
<path d="M317.326 65.9041C317.326 65.9041 328.514 45.456 299.332 42.5378C281.867 40.7913 254.385 36.439 235.131 33.2255M235.131 33.2255C222.214 31.0696 213 29.4262 213 29.4262L235.131 33.2255Z" stroke="url(#paint5_linear_2100_176)" stroke-width="3"/>
<path d="M326.383 56.9895C326.383 56.9895 338.434 34.9624 306.999 31.8188C288.185 29.9374 258.581 25.2491 237.84 21.7874M237.84 21.7874C223.925 19.465 214 17.6947 214 17.6947L237.84 21.7874Z" stroke="url(#paint6_linear_2100_176)" stroke-width="3"/>
<path d="M304.587 71.444C304.587 71.444 314.409 53.4928 288.79 50.9309C273.458 49.3977 249.332 45.5769 232.429 42.7558M232.429 42.7558C221.089 40.8631 213 39.4204 213 39.4204L232.429 42.7558Z" stroke="url(#paint7_linear_2100_176)" stroke-width="3"/>
<path d="M311.153 225.776C311.153 225.776 316.86 252.303 289.75 246.425C273.524 242.907 247.644 239.177 229.477 236.748M229.477 236.748C217.288 235.119 208.571 234.076 208.571 234.076L229.477 236.748Z" stroke="url(#paint8_linear_2100_176)" stroke-width="3"/>
<path d="M298.798 218.011C298.798 218.011 303.6 239.688 280.421 234.964C266.549 232.137 244.416 229.166 228.879 227.236M228.879 227.236C218.455 225.941 211 225.114 211 225.114L228.879 227.236Z" stroke="url(#paint9_linear_2100_176)" stroke-width="3"/>
<path d="M321.399 234.014C321.399 234.014 327.71 262.506 297.245 256.297C279.012 252.581 249.921 248.676 229.499 246.139M229.499 246.139C215.798 244.437 206 243.351 206 243.351L229.499 246.139Z" stroke="url(#paint10_linear_2100_176)" stroke-width="3"/>
<defs>
<linearGradient id="paint0_linear_2100_176" x1="77.5064" y1="90.2477" x2="164.338" y2="85.0298" gradientUnits="userSpaceOnUse">
<stop stop-color="#35C4CD"/>
<stop offset="0.797876" stop-color="#E23DFD"/>
</linearGradient>
<linearGradient id="paint1_linear_2100_176" x1="-63.092" y1="148.467" x2="165.266" y2="148.664" gradientUnits="userSpaceOnUse">
<stop/>
<stop offset="0.74" stop-color="#00F0FF"/>
</linearGradient>
<linearGradient id="paint2_linear_2100_176" x1="-13.7799" y1="194.25" x2="56.9506" y2="194.257" gradientUnits="userSpaceOnUse">
<stop/>
<stop offset="0.74" stop-color="#00F0FF"/>
</linearGradient>
<linearGradient id="paint3_linear_2100_176" x1="47.1569" y1="194.25" x2="123.95" y2="194.258" gradientUnits="userSpaceOnUse">
<stop/>
<stop offset="0.74" stop-color="#00F0FF"/>
</linearGradient>
<linearGradient id="paint4_linear_2100_176" x1="109.69" y1="194.25" x2="186.483" y2="194.258" gradientUnits="userSpaceOnUse">
<stop/>
<stop offset="0.74" stop-color="#00F0FF"/>
</linearGradient>
<linearGradient id="paint5_linear_2100_176" x1="215.871" y1="21.2131" x2="320.358" y2="57.7469" gradientUnits="userSpaceOnUse">
<stop stop-color="#01F0FF"/>
<stop offset="1" stop-color="#2F3883"/>
</linearGradient>
<linearGradient id="paint6_linear_2100_176" x1="217.093" y1="8.84736" x2="329.649" y2="48.2024" gradientUnits="userSpaceOnUse">
<stop stop-color="#01F0FF"/>
<stop offset="1" stop-color="#2F3883"/>
</linearGradient>
<linearGradient id="paint7_linear_2100_176" x1="215.521" y1="32.2102" x2="307.249" y2="64.2829" gradientUnits="userSpaceOnUse">
<stop stop-color="#01F0FF"/>
<stop offset="1" stop-color="#2F3883"/>
</linearGradient>
<linearGradient id="paint8_linear_2100_176" x1="209.392" y1="244.221" x2="312.131" y2="235.909" gradientUnits="userSpaceOnUse">
<stop stop-color="#01F0FF"/>
<stop offset="1" stop-color="#2F3883"/>
</linearGradient>
<linearGradient id="paint9_linear_2100_176" x1="211.671" y1="233.409" x2="299.604" y2="226.295" gradientUnits="userSpaceOnUse">
<stop stop-color="#01F0FF"/>
<stop offset="1" stop-color="#2F3883"/>
</linearGradient>
<linearGradient id="paint10_linear_2100_176" x1="206.882" y1="254.254" x2="322.459" y2="244.902" gradientUnits="userSpaceOnUse">
<stop stop-color="#01F0FF"/>
<stop offset="1" stop-color="#2F3883"/>
</linearGradient>
</defs>
</svg>
