<svg width="1920" height="1894" viewBox="0 0 1920 1894" fill="none" xmlns="http://www.w3.org/2000/svg">
<path d="M1941.5 62.4999C1916.5 40.4998 -2.4999 455 -5.49995 597.5" stroke="white" stroke-width="11"/>
<path d="M1983.22 934.798C1956.78 984.199 -10.4674 871.526 -9.34143 608" stroke="white" stroke-width="11"/>
<rect x="1837.62" y="134.441" width="41.3421" height="8.96576" rx="4.48288" transform="rotate(58.2421 1837.62 134.441)" fill="#4F0070"/>
<rect x="1837.62" y="134.441" width="41.3421" height="8.96576" rx="4.48288" transform="rotate(58.2421 1837.62 134.441)" fill="#4F0070"/>
<rect x="1837.62" y="134.441" width="41.3421" height="8.96576" rx="4.48288" transform="rotate(58.2421 1837.62 134.441)" fill="#4F0070"/>
<rect x="1837.62" y="134.441" width="41.3421" height="8.96576" rx="4.48288" transform="rotate(58.2421 1837.62 134.441)" fill="#4F0070"/>
<rect x="1837.62" y="134.441" width="41.3421" height="8.96576" rx="4.48288" transform="rotate(58.2421 1837.62 134.441)" fill="white"/>
<rect x="1890.54" y="124.231" width="61.4013" height="8.96576" rx="4.48288" transform="rotate(125.691 1890.54 124.231)" fill="#4F0070"/>
<rect x="1890.54" y="124.231" width="61.4013" height="8.96576" rx="4.48288" transform="rotate(125.691 1890.54 124.231)" fill="#4F0070"/>
<rect x="1890.54" y="124.231" width="61.4013" height="8.96576" rx="4.48288" transform="rotate(125.691 1890.54 124.231)" fill="#4F0070"/>
<rect x="1890.54" y="124.231" width="61.4013" height="8.96576" rx="4.48288" transform="rotate(125.691 1890.54 124.231)" fill="#4F0070"/>
<rect x="1890.54" y="124.231" width="61.4013" height="8.96576" rx="4.48288" transform="rotate(125.691 1890.54 124.231)" fill="white"/>
<rect x="39.6234" y="595.441" width="41.3421" height="8.96576" rx="4.48288" transform="rotate(58.2421 39.6234 595.441)" fill="#4F0070"/>
<rect x="39.6234" y="595.441" width="41.3421" height="8.96576" rx="4.48288" transform="rotate(58.2421 39.6234 595.441)" fill="#4F0070"/>
<rect x="39.6234" y="595.441" width="41.3421" height="8.96576" rx="4.48288" transform="rotate(58.2421 39.6234 595.441)" fill="#4F0070"/>
<rect x="39.6234" y="595.441" width="41.3421" height="8.96576" rx="4.48288" transform="rotate(58.2421 39.6234 595.441)" fill="#4F0070"/>
<rect x="39.6234" y="595.441" width="41.3421" height="8.96576" rx="4.48288" transform="rotate(58.2421 39.6234 595.441)" fill="white"/>
<rect x="92.5377" y="585.231" width="61.4013" height="8.96576" rx="4.48288" transform="rotate(125.691 92.5377 585.231)" fill="#4F0070"/>
<rect x="92.5377" y="585.231" width="61.4013" height="8.96576" rx="4.48288" transform="rotate(125.691 92.5377 585.231)" fill="#4F0070"/>
<rect x="92.5377" y="585.231" width="61.4013" height="8.96576" rx="4.48288" transform="rotate(125.691 92.5377 585.231)" fill="#4F0070"/>
<rect x="92.5377" y="585.231" width="61.4013" height="8.96576" rx="4.48288" transform="rotate(125.691 92.5377 585.231)" fill="#4F0070"/>
<rect x="92.5377" y="585.231" width="61.4013" height="8.96576" rx="4.48288" transform="rotate(125.691 92.5377 585.231)" fill="white"/>
<rect x="1846.62" y="858.441" width="41.3421" height="8.96576" rx="4.48288" transform="rotate(58.2421 1846.62 858.441)" fill="#4F0070"/>
<rect x="1846.62" y="858.441" width="41.3421" height="8.96576" rx="4.48288" transform="rotate(58.2421 1846.62 858.441)" fill="#4F0070"/>
<rect x="1846.62" y="858.441" width="41.3421" height="8.96576" rx="4.48288" transform="rotate(58.2421 1846.62 858.441)" fill="#4F0070"/>
<rect x="1846.62" y="858.441" width="41.3421" height="8.96576" rx="4.48288" transform="rotate(58.2421 1846.62 858.441)" fill="#4F0070"/>
<rect x="1846.62" y="858.441" width="41.3421" height="8.96576" rx="4.48288" transform="rotate(58.2421 1846.62 858.441)" fill="white"/>
<rect x="1899.54" y="848.231" width="61.4013" height="8.96576" rx="4.48288" transform="rotate(125.691 1899.54 848.231)" fill="#4F0070"/>
<rect x="1899.54" y="848.231" width="61.4013" height="8.96576" rx="4.48288" transform="rotate(125.691 1899.54 848.231)" fill="#4F0070"/>
<rect x="1899.54" y="848.231" width="61.4013" height="8.96576" rx="4.48288" transform="rotate(125.691 1899.54 848.231)" fill="#4F0070"/>
<rect x="1899.54" y="848.231" width="61.4013" height="8.96576" rx="4.48288" transform="rotate(125.691 1899.54 848.231)" fill="#4F0070"/>
<rect x="1899.54" y="848.231" width="61.4013" height="8.96576" rx="4.48288" transform="rotate(125.691 1899.54 848.231)" fill="white"/>
<path d="M10.2183 1831.68C35.2183 1853.68 1954.22 1439.18 1957.22 1296.68" stroke="white" stroke-width="11"/>
<path d="M-31.5022 959.383C-5.06207 909.983 1962.19 1022.66 1961.06 1286.18" stroke="white" stroke-width="11"/>
<rect x="78.6234" y="1206.44" width="41.3421" height="8.96576" rx="4.48288" transform="rotate(58.2421 78.6234 1206.44)" fill="#4F0070"/>
<rect x="78.6234" y="1206.44" width="41.3421" height="8.96576" rx="4.48288" transform="rotate(58.2421 78.6234 1206.44)" fill="#4F0070"/>
<rect x="78.6234" y="1206.44" width="41.3421" height="8.96576" rx="4.48288" transform="rotate(58.2421 78.6234 1206.44)" fill="#4F0070"/>
<rect x="78.6234" y="1206.44" width="41.3421" height="8.96576" rx="4.48288" transform="rotate(58.2421 78.6234 1206.44)" fill="#4F0070"/>
<rect x="78.6234" y="1206.44" width="41.3421" height="8.96576" rx="4.48288" transform="rotate(58.2421 78.6234 1206.44)" fill="white"/>
<rect x="131.538" y="1196.23" width="61.4013" height="8.96576" rx="4.48288" transform="rotate(125.691 131.538 1196.23)" fill="#4F0070"/>
<rect x="131.538" y="1196.23" width="61.4013" height="8.96576" rx="4.48288" transform="rotate(125.691 131.538 1196.23)" fill="#4F0070"/>
<rect x="131.538" y="1196.23" width="61.4013" height="8.96576" rx="4.48288" transform="rotate(125.691 131.538 1196.23)" fill="#4F0070"/>
<rect x="131.538" y="1196.23" width="61.4013" height="8.96576" rx="4.48288" transform="rotate(125.691 131.538 1196.23)" fill="#4F0070"/>
<rect x="131.538" y="1196.23" width="61.4013" height="8.96576" rx="4.48288" transform="rotate(125.691 131.538 1196.23)" fill="white"/>
<rect x="1845.62" y="1565.44" width="41.3421" height="8.96576" rx="4.48288" transform="rotate(58.2421 1845.62 1565.44)" fill="#4F0070"/>
<rect x="1845.62" y="1565.44" width="41.3421" height="8.96576" rx="4.48288" transform="rotate(58.2421 1845.62 1565.44)" fill="#4F0070"/>
<rect x="1845.62" y="1565.44" width="41.3421" height="8.96576" rx="4.48288" transform="rotate(58.2421 1845.62 1565.44)" fill="#4F0070"/>
<rect x="1845.62" y="1565.44" width="41.3421" height="8.96576" rx="4.48288" transform="rotate(58.2421 1845.62 1565.44)" fill="#4F0070"/>
<rect x="1845.62" y="1565.44" width="41.3421" height="8.96576" rx="4.48288" transform="rotate(58.2421 1845.62 1565.44)" fill="white"/>
<rect x="1898.54" y="1555.23" width="61.4013" height="8.96576" rx="4.48288" transform="rotate(125.691 1898.54 1555.23)" fill="#4F0070"/>
<rect x="1898.54" y="1555.23" width="61.4013" height="8.96576" rx="4.48288" transform="rotate(125.691 1898.54 1555.23)" fill="#4F0070"/>
<rect x="1898.54" y="1555.23" width="61.4013" height="8.96576" rx="4.48288" transform="rotate(125.691 1898.54 1555.23)" fill="#4F0070"/>
<rect x="1898.54" y="1555.23" width="61.4013" height="8.96576" rx="4.48288" transform="rotate(125.691 1898.54 1555.23)" fill="#4F0070"/>
<rect x="1898.54" y="1555.23" width="61.4013" height="8.96576" rx="4.48288" transform="rotate(125.691 1898.54 1555.23)" fill="white"/>
<rect x="65.6234" y="1684.44" width="41.3421" height="8.96576" rx="4.48288" transform="rotate(58.2421 65.6234 1684.44)" fill="#4F0070"/>
<rect x="65.6234" y="1684.44" width="41.3421" height="8.96576" rx="4.48288" transform="rotate(58.2421 65.6234 1684.44)" fill="#4F0070"/>
<rect x="65.6234" y="1684.44" width="41.3421" height="8.96576" rx="4.48288" transform="rotate(58.2421 65.6234 1684.44)" fill="#4F0070"/>
<rect x="65.6234" y="1684.44" width="41.3421" height="8.96576" rx="4.48288" transform="rotate(58.2421 65.6234 1684.44)" fill="#4F0070"/>
<rect x="65.6234" y="1684.44" width="41.3421" height="8.96576" rx="4.48288" transform="rotate(58.2421 65.6234 1684.44)" fill="white"/>
<rect x="118.538" y="1674.23" width="61.4013" height="8.96576" rx="4.48288" transform="rotate(125.691 118.538 1674.23)" fill="#4F0070"/>
<rect x="118.538" y="1674.23" width="61.4013" height="8.96576" rx="4.48288" transform="rotate(125.691 118.538 1674.23)" fill="#4F0070"/>
<rect x="118.538" y="1674.23" width="61.4013" height="8.96576" rx="4.48288" transform="rotate(125.691 118.538 1674.23)" fill="#4F0070"/>
<rect x="118.538" y="1674.23" width="61.4013" height="8.96576" rx="4.48288" transform="rotate(125.691 118.538 1674.23)" fill="#4F0070"/>
<rect x="118.538" y="1674.23" width="61.4013" height="8.96576" rx="4.48288" transform="rotate(125.691 118.538 1674.23)" fill="white"/>
</svg>
